<svg version="1.0" xmlns="http://www.w3.org/2000/svg" width="1429.333" height="1429.333" viewBox="0 0 1072 1072"><path d="M498.5 219.4c-6.8 2.4-9.9 4.2-14.6 8.5-11 9.8-19.4 23.5-24.8 40.4-4.4 13.6-5.4 19.8-5.5 34.2-.1 14.6.6 21.3 3.5 33 1.9 7.5 2.7 10.2 4.5 15 .4 1.1.8 2.2.8 2.5.4 2.2 10 24.6 14.1 33 4.6 9.2 7 14.5 12 26.5 1.7 4.1 4.7 11.6 8 20 1.5 3.8 3.1 7.9 3.5 9 1.2 2.9 3.7 11.4 4.6 15.5.4 1.9.9 3.9 1 4.5.4 1.9 1.5 8 2.1 11.5.8 4.9 1.1 42.3.4 43.5-.3.5-.7 2-.9 3.3-1 7.8-8.1 19.8-16.4 28-8.9 8.8-10.7 9.3-20.3 6.3-3.3-1-6.9-1.7-8-1.4-1.1.3-5.6.7-10 1-4.4.2-8.4.5-8.8.6-.4.1.6 1.6 2.2 3.3 1.7 1.7 4.1 5.7 5.3 8.9 3.9 10.2 7 12.2 26.8 17 3.6.8 7.4 1.8 8.5 2.1 3.9 1.1 14.3 1.2 18.6.3 11.2-2.5 21.2-10.1 28.6-21.7 3.6-5.6 9-16.9 9.7-20.5.3-1.2.7-3.3 1-4.7.3-1.4.8-3.6 1.1-5 .8-3.7.8-18.6.1-26-.4-3.6-.9-8.9-1.1-11.9-.3-3-.7-6.1-.9-7-.3-.9-.7-3.6-1-6.1-.8-5.6-1.3-9-2.8-16-.6-3-1.2-6.2-1.4-7-.1-.8-.7-3-1.2-4.8-.6-1.8-1.1-3.5-1.1-3.7-.2-1.6-1.6-7-3.8-14.2-1.3-4.5-2.3-8.4-2.1-8.6.2-.2-.2-1-.8-1.8-.6-.8-1.9-3.9-2.9-6.9-1-3-3.5-9.2-5.7-13.8-2.1-4.6-4.4-9.8-5.2-11.5-2.1-4.8-6-13.3-10-22-2-4.3-3.6-8-3.6-8.2 0-.2-1.3-3.2-2.9-6.7-8.7-18.8-10.9-32.8-8.8-54.3.6-6.5 4-20.3 5.7-23.5.6-1.1.8-2 .5-2-.2 0 1.6-3.9 4.1-8.8 4.7-8.9 10.2-16.8 15.4-22.2l3-3.1.1 20.8v20.8l2-4.3c1-2.4 2.1-7.1 2.4-10.5.5-6.6 1.9-13.5 2.9-14.4 1.6-1.7.6 15.6-1.3 22.3-.9 3.2-.9 16 .1 16.9.7.7 5.8-1.6 5.8-2.6 0-.5.7-.6 1.5-.3.8.4 1.5 1.2 1.5 2 0 .7 1 2 2.2 2.8 2.8 2 4.9.8 8.6-4.7 7.3-10.6 10.8-21.5 9-28.2-.4-1.6-.9-4.1-1.2-5.5-.2-1.4-1.1-5.7-2.1-9.5-.9-3.9-1.9-7.9-2.1-9-.3-1.1-.6-2.9-.8-4-.5-3.8-3.5-8.3-8.8-13-7.3-6.6-9.8-7.4-21.6-7.3-8.4.1-11.4.6-18.7 3.2zM479 242.5c-7.2 11.7-12.3 26.1-15.5 44-.7 4.2-1.8 18.9-1.9 25.7-.1 3.9-.4 5.4-1.1 4.7-1.3-1.3-1.7-24.8-.5-30.9 1.5-8 2.7-12.9 4.5-19 1.7-5.6 8.7-19 12.7-24.3 3.9-5.2 5-5.4 1.8-.2zm38.2 267c.1 7.8-.4 11.3-2 15.8-3.1 8.6-8.8 16.9-15.2 22.2l-2.5 2 1.5-2c.8-1.1 1.7-2.2 2-2.5 1.4-1.3 6.1-9.2 7.5-12.6 3-6.9 4.3-11.5 5.2-18.4.3-2.5.7-5.2.9-6 .1-.8.3-4.4.4-8 .2-5.7.3-6.2 1.2-3.5.5 1.6 1 7.5 1 13zM13.7 217.6c-.1.1-1.7.4-3.5.7-4.2.7-4 .5-4.5 5-.5 4-1.6 6.2-1.6 3.1 0-1.1-.2-2.8-.5-3.9-.2-1.1-.5-2.5-.6-3 0-.6-.8.2-1.6 1.8C0 224 0 231.1 1.5 247c.3 4.1 1.2 15.7 2 28.6.2 2.7.6 6.8.9 9 .3 2.1.8 7 1.1 10.9.8 9.2 2 19.4 3 24.4.2 1.2.7 5 1 8.4.4 3.4.8 6.4 1 6.7.2.3.6 3 .9 6 .4 3 .8 6.6 1 8 .3 1.4 1 6.1 1.6 10.5.6 4.4 1.4 9.3 1.6 11 1 6 1.3 8.1 2.4 16 .6 4.4 1.3 9.2 1.6 10.7.2 1.6.6 4 .8 5.5 1.7 10.8 2.9 19.2 3.2 21.8.1 1.6.3 3 .4 3 .1 0 .3.9.4 2 .3 2.6 1.7 11.2 2.1 13.3.1 1 .6 3.9.9 6.7.4 2.7 1.3 8.8 2.1 13.5.7 4.7 1.6 10.5 1.9 13 .3 2.5.8 5.6 1.1 7 .3 1.4.7 4.3 1 6.5.2 2.2.7 5.1.9 6.5.3 1.4 1 6.1 1.6 10.5.7 4.4 1.4 8.7 1.5 9.7.2.9.7 3.8 1.1 6.5.3 2.6.8 5.7 1 6.8.3 1.1.7 3.6 1 5.5.3 1.9.8 3.8 1.1 4.2.2.5.6 1.8.8 3 .7 3.7 6.3 14.1 9.3 17.3 4.2 4.6 14.3 12.2 18.5 14 4.3 1.8 6.6 1 8.5-2.7.9-1.9 8.2-24.9 9.7-30.8.3-.8 1.6-5.8 3-11s2.8-10.3 3-11.3c.2-1 .7-2.7 1-3.7.3-1 .8-2.7 1-3.7.2-1 1.6-6.8 3.1-12.8 1.4-6.1 2.7-11.5 2.8-12 .6-2.6 2.9-13.2 3.1-14.5.2-.8.4-1.5.5-1.5.1 0 .3-.9.5-2s.6-3.4.9-5c.3-1.7.6-3.3.7-3.7 0-.4.5-2.2 1-4 .5-1.8 1.2-4.8 1.5-6.7.7-3.9.9-5.1 2.2-11.1.6-2.5 1.3-6.5 1.7-9 .4-2.5 1.1-6.5 1.7-9 .5-2.5 1.2-5.9 1.4-7.5.3-1.7.9-5.3 1.5-8 1.4-7.6 1.7-9 2.3-12.6.3-1.9.8-4.5 1-5.9.3-1.4 1.2-6.6 2-11.5.9-5 1.8-10.1 2.1-11.5.3-1.4.8-4.3 1.1-6.5.7-4.6.5-3.6 3.9-22.5 1.4-8 2.8-16 3.1-17.9.3-1.8.8-4.3 1-5.5.2-1.1.7-3.7 1-5.6.3-1.9 1-5.5 1.5-7.9.5-2.4 1.2-6.5 1.5-9 .3-2.5.7-4.8.9-5.1 1.8-3 2.7-36.3 1.1-45-1-5.7-3.3-14.7-4.1-16-.7-1.1-10.1-.5-16.4.9-2 .4-4.6.4-5.8 0-1.3-.5-2.7-.3-3.7.4-1.5 1.1-3.6 9.6-5 20.2-.3 2.2-.8 5.5-1.1 7.2-.3 1.8-.7 4.8-1 6.5-1.8 11.9-2.7 17.3-4 24.8-.8 4.7-1.7 10.1-2 12-.3 1.9-1.5 8.7-2.6 15-1.1 6.3-2.2 13.1-2.5 15-.3 1.9-2 12.7-4 24-1.9 11.3-3.7 22.1-4 24-.3 1.9-.7 4.6-1 6-.3 1.4-.7 3.8-.9 5.5-.3 1.6-.7 4.1-1 5.5-.3 1.4-.7 4.1-1 6-.3 1.9-.7 4.6-1 6-.2 1.3-.7 4.2-1 6.5-1 6.6-1.5 9.9-2 11.5-.2.8-.7 3.1-1 5-.3 1.9-1.5 7.3-2.5 12s-2.1 9.6-2.4 11c-.7 3.8-2.7 13.3-3.1 15-.2.8-.4 1.9-.5 2.5-.2 1.8-2.8-3.9-3.4-7.5-.7-4.3-2.5-16.3-3.2-20.9-.2-1.9-.7-4.8-.9-6.5-.3-1.7-1-5.6-1.5-8.6-1-6-1.9-12.1-2.5-16-.2-1.4-2-12.4-4-24.5-4.7-29.1-4.4-27.2-5.7-34-1.3-7.1-1.6-8.9-2.3-13.5-.2-1.9-.7-4.6-1-6-.3-1.4-.7-3.6-.9-5-1.3-7.8-5.7-32.9-6.1-35-.2-1.3-.7-4.2-1.1-6.4-.3-2.2-.7-4.3-.9-4.6-.2-.3-.6-3-1-6-.3-2.9-.8-5.7-1-6.1-.3-.4-.7-2.4-1-4.5-2.1-14.4-4.6-24.7-8.7-35.4-2-5.4-2.7-6-5.9-5.8-1.7.1-3.1.3-3.2.4zm102.7 10.6c-.4 2.1-.8 6.5-1.9 20.8-.4 6-1.5 14.3-2.2 17.5-.2 1.1-.6 3.3-.8 5-.4 3.3-1.4 9.5-2.1 12.9-.4 2.1-1.1 6.3-2 12.6-.2 1.9-.6 4.2-.9 5-.4 1.4-1.3 7.1-2 11.5-.1 1.1-.3 2-.4 2-.2 0-.4 1.8-.7 4-.2 2.2-.7 5.1-1 6.5-.4 1.4-.8 4.1-1 6-.3 3.3-1.1 7.5-1.4 7.5-.1 0-.3 1.3-.5 3-1 7.3-1.5 11.2-2 13.5-.3 1.4-.7 4.1-1 6-.2 1.9-1.1 7.3-2 11.9-.9 4.6-1.8 9.7-2 11.3-.2 1.6-.6 4.1-.9 5.6-.3 1.5-.8 4-1.1 5.7-1 5.8-2.7 16-3 18-.2 1.1-.9 4.7-1.6 8-.6 3.3-1.2 6.6-1.2 7.2 0 .7-.4 1.3-.8 1.3s-.6.8-.5 1.7c.2 1 0 3.1-.4 4.8-.4 1.6-2 9.1-3.5 16.5s-2.9 14.2-3.2 15c-.6 1.6-.8 2.4-1.7 8.6-.7 5.4-2 8.7-4 10.3-1.5 1.2-1.6 1-1.1-2.5.6-4.2 1.3-8.6 1.9-11.9.2-1.1.6-3.6 1-5.5.3-1.9.8-4.6 1.1-6 .3-1.4.8-4 1.1-5.9.3-1.8.8-4.3 1-5.5.3-1.1.7-3.5.9-5.1.3-1.7.7-4.1 1-5.5.2-1.4.7-3.6 1-5 .2-1.4.7-4.1 1-6 .4-1.9 1-5.4 1.6-7.8.5-2.3 1.2-5.9 1.5-7.8.3-2 .8-4.6 1.1-5.8.2-1.1.6-3.2.8-4.6.2-1.4.7-4.1 1.1-6 1.1-5.4 1.3-6.2 1.9-10.5.3-2.2 1.2-7.2 2-11 .8-3.9 1.7-8.6 2-10.5.3-1.9 1.7-10 3.1-18 3.2-19.1 3.3-19.5 3.9-23.3.3-1.7.7-4.3 1-5.7.2-1.4.7-4.5 1.1-7 .3-2.4.7-4.7.9-5 .2-.3.6-2.8.9-5.5.8-5.5 1.4-9 1.6-9 .1 0 .3-1.4.5-3 .1-1.7 1.2-8.9 2.4-16 1.2-7.2 2.4-14.6 2.7-16.5.2-1.9.7-4.5.9-5.7.3-1.2.7-4.1 1-6.5.3-2.4.8-5 1-5.8.2-.8.7-3 1-4.9.6-3.3 2.2-7.1 3-7.1.2 0 .2 1-.1 2.2zM10 272.5c0 .8-.2 1.5-.4 1.5s-.6-.7-1-1.5c-.3-.8-.1-1.5.4-1.5.6 0 1 .7 1 1.5zm992-49.3c-9.4 3.9-18.7 20.7-24.5 43.8-2.9 11.8-3.7 14.9-4.1 17-1.6 8.6-2.4 13.1-2.9 17.5-.8 7.7-1.6 13.7-2.1 17.5-.3 1.9-.7 5.1-.9 7-.2 1.9-.7 6.2-1 9.5-.8 7.5-1.1 9.9-1.9 15.5-.3 2.5-.8 7.2-1.1 10.5-.3 3.3-.8 7.6-1 9.5-1.2 10.5-1.7 15-2 19.5-.2 2.7-.6 7-.9 9.5-.8 6.4-1.5 14.4-2.1 22-.3 3.6-.8 9.6-1.1 13.5-1 11.6-1.3 16.3-1.9 32-.3 8.2-.8 19.3-1 24.5-.3 8.1-1.7 47.5-1.7 50.5-.2 7.2 4.4 20.6 8.2 24 2.2 2 2.7 2.1 9.8 3.1l4.2.6.1-3.8c0-2.2.2-6.2.4-8.9.2-2.8.6-10.9 1-18 1.3-31.6 1.9-39.3 2.8-40.1.1-.1 3.8-.4 8.2-.8 4.4-.3 9.8-.9 12-1.1 4-.6 6.4-.8 21-2 4.4-.3 8.6-.8 9.3-1 .8-.3 1.2.7 1.3 2.8 0 1.8.2 5.4.4 8.1.2 2.6.6 11.2.9 19 .8 17.8 1.2 23.5 2.7 31.6 1.3 7.4 2.6 10.3 4 9.5.5-.4.7-1.1.4-1.6-.4-.5-.1-.9.4-.9.6 0 1.1.6 1.1 1.2.1 2.6 1.3 12.3 1.6 12.7.1.1 1.5-.1 3.1-.7 2.3-.7 3.8-.4 8.5 1.9 3.7 1.9 5.9 2.5 6.4 1.8 1.5-2.4 1.9-12 1.8-40.9-.1-45.1-1.9-87.5-5-119-.3-3-.7-7.5-1-10-.3-4.5-.9-9.4-2-18-.3-2.5-.7-6.1-.9-8-.2-1.9-.6-5.3-.8-7.5-.3-2.2-.9-6.5-1.2-9.5-.3-3-.8-7.1-1.1-9-.2-1.9-.6-5.3-.8-7.5-.3-2.2-1-7.3-1.5-11.3-.6-4-1.3-9.4-1.6-12-.3-2.6-.8-5.8-1-7.2-.3-1.4-.8-4.5-1.1-7-.3-2.5-.8-5.4-1-6.5-.9-4.4-1.6-8.2-1.9-11-.3-1.7-.9-5-1.4-7.5-.5-2.5-1.2-5.9-1.4-7.5-.7-4.1-3.1-14.9-6.1-27.5-1.4-5.8-2.7-11.6-3-13-.3-1.4-.8-3.6-1.1-5-.3-1.4-.9-3.9-1.1-5.5-.8-4.3-3.1-7.5-5.7-7.6-12.2-.6-14.5-.4-18.7 1.3zm-12.3 23c-1.3 3.7-5.8 19.2-7.3 25.3-2.3 10.2-2.5 10.8-3 13.5-.2 1.4-.7 3.6-1 5-.3 1.4-.8 3.8-1 5.5-.3 1.6-.9 5.2-1.4 8-.5 2.7-1.2 7.5-1.6 10.5-.3 3-.8 6.4-1 7.4-.2 1.1-.6 4.4-.9 7.5-.3 3.1-.8 7.4-1.1 9.6-1.1 7.9-2.6 23.5-2.8 28.7 0 2.1-.3 3.8-.6 3.8s-.5 2.4-.6 5.3c0 2.8-.4 8.3-.7 12.2-.4 3.8-.9 9.5-1.1 12.5-.3 3-.7 7.5-1 10-.2 2.5-.7 7.6-1.1 11.5-.3 3.8-.8 8.6-1 10.5-.3 1.9-.7 6.6-1.1 10.5-.3 3.8-.8 7.8-1 9-.2 1.1-.6 4.5-.9 7.5-.6 6.6-1.2 10.1-2 10.8-.5.6 0-11.2 1-22.1.3-2.8.7-7.7.9-10.7.3-3 .7-7.8 1-10.5.7-7 1.5-14.8 2.1-23 .4-3.9.8-8.1 1-9.5.2-1.4.7-5.9 1-10 1.3-15.7 3.2-35.6 4-42 .4-3.3 1.3-12 2-18.5.1-1.7.5-4.4.9-6 .3-1.7.8-5.3 1.1-8 .3-2.8.7-6.1 1-7.5.3-1.4.7-3.9 1-5.5.3-1.7.7-4.1 1-5.5.3-1.4.8-4 1.1-5.9.9-5.2 1.1-6.1 2.9-13.1l2-8c.5-2.2 5.6-18.4 6.2-19.3.7-1.2 2.5-.8 2 .5zm21.9 14.4c2.3 12 3.1 18 2.7 18.6-.2.5-.1.8.4.8.4 0 .8 1 .9 2.2 0 1.3.4 4.5.8 7.3.4 2.7.9 6 1.1 7.2.2 1.2 1 6.8 1.9 12.5.9 5.7 1.8 12.3 2.1 14.7.2 2.4.7 6 1 8 .2 2 .7 5.6.9 8.1.3 2.5.7 6.7 1 9.5.5 4.9 1.4 14.7 2.1 23.5 1.4 16.2 1.9 32.6 2 62.4v33.9l-3.5.2c-1.9.2-7.5.6-12.5.9-4.9.4-12.4.9-16.5 1.2-7.2.6-11.5.7-15.3.5-1.7-.1-1.8-.8-1.2-7.7.8-9.6 1.3-14.6 2.1-20.9.4-2.8.8-6.6.9-8.5.3-4.3 1.4-16.1 1.9-21.5 1.7-16.6 2.1-20.7 3-30 .4-3.3.8-7.6 1.1-9.5.2-1.9.7-6.2 1-9.5.3-3.3.8-7.6 1-9.5.3-1.9.7-6 1-9 .8-9.8 1.4-15.4 2.1-20 .4-2.5.8-5.4.9-6.5 1.5-11.7 11.7-55.1 14.1-59.7 1.8-3.4 2.3-3.3 3 .8zm21.1 139.1c-.3 1-.5.2-.5-1.7s.2-2.7.5-1.8c.2 1 .2 2.6 0 3.5zm2 56c-.1 6.5-.3 1.2-.3-11.7 0-12.9.2-18.2.3-11.8.2 6.5.2 17.1 0 23.5zM957.5 516c0 11.6-.2 21-.5 21-1.6 0-1.7-36.6-.1-41.8.5-1.4.6 2.9.6 20.8zm79.2-14.8c-.3.8-.6.5-.6-.6-.1-1.1.2-1.7.5-1.3.3.3.4 1.2.1 1.9zm.6 4.8c-.7 2.7-1.3 2.5-1.1-.4.1-1.4.5-2.3.9-2 .4.2.5 1.3.2 2.4zm.2 3.9c.3.5.2 1.2-.3 1.5-.5.3-.9-.1-.9-.9 0-1.7.3-1.9 1.2-.6zm-.8 6.8c-.3 1-.5.4-.5-1.2 0-1.7.2-2.4.5-1.8.2.7.2 2.1 0 3zm0 4.5c-.3.8-.6.5-.6-.6-.1-1.1.2-1.7.5-1.3.3.3.4 1.2.1 1.9zm.8 4.2c0 1.5-.4 2.1-.9 1.6s-.6-1.6-.3-2.4c.9-2.2 1.2-2 1.2.8zm-.8 7.3c-.3 1-.5.4-.5-1.2 0-1.7.2-2.4.5-1.8.2.7.2 2.1 0 3zm0 4.5c-.3.8-.6.5-.6-.6-.1-1.1.2-1.7.5-1.3.3.3.4 1.2.1 1.9zm-79 3c-.3.8-.6.5-.6-.6-.1-1.1.2-1.7.5-1.3.3.3.4 1.2.1 1.9zM239 223.7c-1.9.9-5.3 1.6-7.4 1.7-3.9.1-4.1.2-7.8 7.7-6.9 13.5-6.8 12.2-6.3 90.9.3 38.8.7 79.7 1 91 .2 11.3.7 31.1 1 44 1.3 61 1.5 65.6 3 86.5.4 5 1.4 15.7 2.1 21 1.4 12.2 1.1 11.7 7.9 13 15.9 3 41.9 2.3 51.7-1.4 6.3-2.4 14.5-9.2 17.9-14.9 1.3-2 2.5-3.9 2.8-4.2 2.5-2.3 10.8-25.6 12.5-35 .3-1.9.8-4.6 1.1-6 4-19.7 3.9-70.4-.1-96-.3-1.9-.7-5.1-1-7-.2-1.9-.9-5-1.4-7-.5-1.9-1.1-4.8-1.4-6.3-2.1-12.2-13.9-41.7-16.7-41.7-.5 0-.9-.5-.9-1.1 0-.6-1.9-3.4-4.2-6.3-11-13.5-18.5-17.5-34-17.9-7.3-.2-7.7-.3-8.3-2.7-.9-3.4-1.4-18.2-3-82.5-.2-8.8-.6-16.9-.9-18-.2-1.1-.5-2.7-.5-3.6-.1-.9-.9-2.6-1.8-3.7-1.7-1.9-2-1.9-5.3-.5zm-15.4 62.4c.2 10.7.6 24.8.8 31.4.8 25.1.8 31.6.2 32.2-2.1 2.2-2.7-5.5-3-42.7-.2-29.9.1-41.7 1-40.7.3.2.7 9.2 1 19.8zm2 86.7c.1 4.8.5 19.9.8 33.7.6 23.9.9 33.6 2 74 .3 9.9.8 29.2 1.2 43 .3 13.7.7 28.3.8 32.2.2 4-.1 7.3-.6 7.3-.4 0-.8-1.5-.9-3.3 0-3.5-.4-9.9-1.3-25.2-3.4-54.2-5.2-173.5-2.7-170.9.3.2.6 4.4.7 9.2zm33.6 8.1c5.2 6.1 11.6 17.6 14.3 25.4 2.3 7 5.3 22 6 30.2.2 2.2.6 5 .9 6.2.2 1.2.7 5.4 1.1 9.3.4 3.9.9 8.6 1.1 10.3 1.7 12.4 2.3 52.6 1.1 63.4-1.1 8.9-4.7 21.6-7.3 25.6-1.4 2.1-3.9 4.7-5.7 5.7-3.4 2.1-10.8 2.7-15 1.1l-2.4-.9.6-15.9c1.2-33.4.4-150.5-1-161.1-.7-4.4 2.2-4.1 6.3.7zm15.8 7.3c0 .4 1.3 3.6 2.9 7.1 3.8 8.4 7.8 20.2 8.6 25.2.3 2.3.8 5.2 1.1 6.5 1.4 6.8 3.2 22.5 5 43.5.6 6.9.9 25.4.5 36.5-.1 4.7-1.9 2.7-2.5-3-.6-4.7-1.5-16.6-2.1-28.5-.3-3.9-.7-9.7-1-13-.3-3.3-.7-8.5-1-11.5-.4-4.8-1-10.4-2-20-1.7-15.6-9.2-36.7-16.7-47.3-4.4-6.3-2.3-7.4 2.8-1.4 2.4 2.8 4.4 5.5 4.4 5.9zm416.6-165.4c-.3.2-5.1.5-10.8.6-15 .4-19.4 3-28.3 16.6-8.7 13.3-16.9 34.9-20 52.9-.3 1.9-.7 3.7-.9 4-.2.3-.7 2.6-1 5.1-.3 2.5-.8 5.6-1.1 7-.9 4.2-1.3 7.2-2 13-.3 3-.8 7.1-1 9-.3 1.9-.7 6.6-1 10.5-.4 3.8-.8 9.2-1 12-1.9 21.4-3.8 78.2-3.9 112-.1 29.2.5 35.6 5 52.2 8.1 30.4 23.9 50.7 44.7 57.8 12.6 4.2 24 4.9 30.2 1.7 10.2-5.2 18.3-19.9 21-38.2.3-2 .7-4.5.9-5.7.3-1.1.7-3.8 1-5.9.3-2.2.8-5 1.1-6.4.2-1.4.7-4.1.9-6 .3-1.9.8-4.4 1-5.6.2-1.2.7-4.5 1.1-7.4.4-2.9.9-6.2 1.1-7.4.2-1.2.6-4.1.9-6.6.3-2.5.7-5.6 1-7 .4-2.4 1.2-10 2-18.5 4.5-47.9 6.4-148.5 3.1-170-.2-1.7-.7-5-1-7.5-.6-5-1.3-8.5-3.1-17.6-3.4-16.1-10.6-33.3-16.2-38.6-4-3.7-9.8-5.9-17-6.2-3.5-.2-6.5-.1-6.7.2zm-35.1 22.1c-.2 1-1.2 3.8-2.3 6.2-1.8 4.1-7.8 20.4-8.8 23.9-2.2 8.4-5.5 22.1-5.9 25-.3 2-.7 4.5-.9 5.6-.2 1.1-.7 4.7-1.1 7.9-.4 3.3-.9 6.9-1.2 8-.2 1.1-.6 4.5-.8 7.5-.6 5.8-1.1 12-2 21-.3 3-.7 8.9-1 13-.3 4.1-.8 9.5-1 12-.6 6.2-1.5 21.1-3.1 54.5-.3 6.6-.7 22.3-.9 35-.5 29.1-.4 27.9-.9 27.4-1.9-1.9-2.7-49.5-1.2-69.4.4-5.5.9-12.9 1.1-16.5.8-13.3 1.6-25.6 2-30 .2-2.5.7-8.3 1-13 .3-4.7.8-9.6 1-11 .2-1.4.7-6.1 1-10.5.3-4.4.8-9.1 1-10.5.2-1.4.7-5.4 1-9 1.2-11.9 1.6-15.5 2-18 .2-1.4.7-4.8 1.1-7.5.8-6.2.9-6.7 4.8-21.5.2-.8 1-2.9 1.6-4.5.6-1.7 1.3-3.7 1.5-4.5.6-3 3.9-10.6 7.3-16.8 3.3-6.1 5.4-8 4.7-4.3zm38.2 6.3c1.9 2.1 5.5 12.3 6.6 18.8.3 1.4 1 4.3 1.5 6.5 1.2 4.2 1.6 6.7 2.8 15 .3 2.7.8 5.9 1.1 7 .5 2.5 1.5 18.5 1.5 24.5 0 2.5 0 9.2-.1 15v12c.3 17.9-1.9 82.2-3.7 105-.8 10.5-2.2 23.5-2.9 26-.2.8-.7 3.5-1 6-.9 6.4-1.5 10.3-2 12-.2.8-.7 3.3-1 5.5-.3 2.3-.8 5.2-1.1 6.5-.3 1.4-.7 3.8-.9 5.5-.3 1.6-.7 4.1-1 5.5-.5 2.4-1.5 8.8-2 12-1 6.9-3.7 12.6-8.2 16.8-4.2 3.9-5.5 3.7-11-2.1-6.4-6.5-6.7-6.8-10.5-13.2-7.2-11.8-10.2-28.4-10.1-56 0-7.7.3-17.8.6-22.5 1.3-16.8 2-27.6 2.1-32.2.1-2.7.3-4.8.6-4.8s.5-2.4.6-5.3c0-2.8.4-9.7.9-15.2.4-5.5.9-12 1-14.5.2-2.5.6-7.7.9-11.5.4-3.9.9-9.9 1.1-13.5 1.3-16.5 1.9-22.5 3.5-33.5.5-3.3 1.2-7.8 1.5-10 .9-6 7.1-31.3 9-37 1-2.8 1.9-5.5 2-6 .1-.6.5-1.7.8-2.5.3-.8 1.7-4.8 3.1-8.8 3-8.3 4.4-11.4 6-12.4 2.2-1.5 6.3-.8 8.3 1.4zM715.4 374c-.2 22.4-.7 38.1-1.8 52.2-.3 2.9-.8 9.3-1.1 14.3-.7 9.5-.8 11.2-1.9 21.5-.9 8-1.5 13.4-2.1 18-.2 1.9-.7 6-1.1 9-1 8.1-1.2 9.5-1.4 9.5-.2 0-.4 1.1-.6 2.5-.9 7.6-1.5 11.2-2.9 17.5-.9 3.8-1.8 8-2.1 9.1-.8 4.2-4.5 15.6-4.9 15.2-.2-.2.5-4.2 1.5-8.8 1-4.7 2.1-9.6 2.4-11 .3-1.4.7-3.4.9-4.5.4-1.9 3.3-18.9 4.2-24.5 1.2-7.5 2.9-22.7 4-35.5.3-3.3.8-8.3 1-11 .5-4.9 1.3-17.7 2-30.5.7-11.8 1.7-38.3 2-53.5.2-8.3.5-16.8.6-19l.2-4 .6 4.5c.3 2.5.5 15.5.5 29zm108.4-149.5c-.2.2-4.1.6-8.8.9-7.3.5-12.2 1.1-16.5 2-4.8 1.1-9.5 3.2-9.5 4.3 0 .7.7 1.3 1.5 1.3 2.6 0 4.7 4.5 4 8.7-.5 3.5-.3 3.9 1.7 3.9 2.5.1 14.2 1.3 18 1.9 1.3.2 7.1.9 13 1.6l10.8 1.2-.7 5.6c-.4 3.1-.8 6.8-.8 8.3 0 1.6-.2 2.8-.5 2.8s-.5 2.1-.6 4.8c-.1 2.6-.4 14.6-.8 26.7s-.9 27.4-1.1 34c-.4 14.4-1.5 51.1-2 65-.3 9.5-1.2 39.2-2 65-.2 6.6-.7 21.2-1 32.5-1 30.5-1 56.2.1 58.9 1 2.2 1.1 2.2 2.7.6 1.1-1.1 1.7-3.4 1.8-6.8 0-2.9.2-8.8.4-13.2.3-8.7 1.5-48.7 2-70.5.8-31.5 1.7-72.6 2-86.5.2-8.3.4-15 .4-15 .2 0 1.3-29.9 1.5-38.2 0-4 .4-7.3.7-7.3.4 0 .3-1.6-.1-3.4-.4-1.9-.6-3.7-.3-4 .3-.2.6-5.1.8-10.8.9-27.2 1.6-39.8 2.5-42.7.5-1.7.9-3.5.9-3.8 0-.4.4-.9 1-1.1 1-.3 1.7 6.2 1.2 9.2-.1.6-.4 7.1-.7 14.5-.2 7.5-.7 18.5-.9 24.6-1.2 26.7-2.3 61.4-3 97.9-.5 24.2-1.2 48.5-1.9 72.6-.3 8-.8 24.6-1.2 37-.3 12.4-.8 25.4-.9 29-.9 20.4-.6 28.7.9 32.4l1.6 3.8 2.7-1.7c1.6-1 4.3-2.8 6-4.2l3.3-2.4.6 4.3c1.2 7.1 7.1 11 11.7 7.5 2.9-2.1 3.1-6.5 5.2-108.7.8-38.4 1.5-66.1 2.1-84 1.9-55 1.8-91.1-.1-117-.4-5.2-.8-10.9-.9-12.5l-.1-3 8.5.2c4.7 0 13.4.3 19.5.6 7.7.3 12.1.1 14.7-.9 2.1-.7 3.9-1.3 4.1-1.3.9.1 5.7-2.2 5.7-2.8 0-.5-1.4-1.6-3-2.5-2.7-1.5-2.9-2-2.3-5 1.4-6.6 1-8.1-2.2-8.9-1.6-.5-4.5-1.1-6.3-1.4-1.9-.3-3.7-.7-4.1-.9-.3-.2-3.5-.7-7.1-1.1-3.6-.4-7.4-.9-8.5-1.2-2-.5-65.2-1.2-65.7-.8zm-468 4.6c-3.9 2.2-4.7 8.9-5.3 45.4-.3 19.2-.7 38.6-1 43-.3 7.2-.7 16.9-2 54.5-.2 6.3-.7 19.1-1 28.5-3.5 93-4.4 139.6-3.1 153.5 1 11 1.5 13.9 4.2 23.2.4 1.4 1.8 1.7 7.4 1.7 3.8 0 7.2-.3 7.4-.7.5-.8 1.6-13.7 2.1-24.2.2-4.1.7-12 1-17.5.8-14 1.4-28.2 2-48.5.3-9.6.8-23.1 1-30 .2-6.9.7-21.5 1-32.5.3-11 .8-24.5 1-30 .2-5.5.7-18.3 1-28.5.3-10.2.8-22.6 1-27.5.3-9.6 1.5-41.1 2-56 .2-5 .4-10.1.4-11.3.1-1.3.6-2.2 1.2-2 1.4.5 1.2 28.3-.6 78.8-.3 9.6-.8 23.1-1 30-.2 6.9-.6 18.8-.9 26.5-.4 7.7-.8 19.8-1.1 27-.3 7.1-.8 18.4-1 25-.3 6.6-.7 16-1 21-.3 4.9-.7 14.6-1 21.5-.4 6.9-.8 16.8-1.1 22-.2 5.2-.6 15.3-.9 22.5-.5 14.4-1.2 25.5-1.8 29.7-.9 6.1 3.7.9 4.7-5.2 1.9-11.8 2.6-23.5 4.2-78 .3-11.3.8-25.5 1-31.5.4-11.3.4-12 .3-15.8-.1-1.2.2-9 .5-17.2.3-8.3.8-21.1 1.1-28.5.6-14.4 1.1-27.1 2-43.9 1.3-24.7 1.8-40 1.9-61.1.1-23.2-.4-31.3-2.5-43.8-1.2-7-1.3-7.3-3.6-6.7-2 .5-2.3.1-2.5-2.2-.3-6.7-.5-8.4-1-8.8-.3-.3-2.1.2-4.1 1-3.3 1.4-3.7 1.3-4.9-.3-2-2.8-5.1-4.2-7-3.1zM107 716.4v8.1h424c281.9 0 424-.3 424.1-1 0-.6.2-4 .2-7.8.2-5.2-.1-6.8-1.3-7.1-.8-.2-191.7-.4-424.2-.4l-422.8.1v8.1zm352.8 48.3c-.2.5-.4 4.6-.3 9.3 0 8.3 0 8.5-2.5 9.1-1.4.3-3.7.2-5.2-.2-1.6-.4-2.9-.5-2.9-.1-.6 2.8-.4 8.2.3 8.4.4 0 2.6.2 4.8.4 2.2.1 4.4.3 4.8.3.5.1.8 7.2.8 15.8-.1 8.7.3 17.6.8 19.8 1.3 5.8 4.8 10.1 9.8 11.7 6.3 2.1 14.3 1.2 20.2-2.3 4-2.3 4.3-3.4 2.1-6.7-1.5-2.1-1.7-2.1-4-.6-3.8 2.5-13.9 2.7-16.7.4-2.2-1.8-2.3-2.3-2.3-20.1v-18.3l11.2.1h11.1v-8.8l-3.6.1c-2 .1-7.2.2-11.4.1l-7.8-.1v-19h-4.4c-2.5 0-4.6.3-4.8.7zm174.7 8.3c.1 4.9-.1 9.4-.4 9.8-.4.4-2.8.7-5.6.7h-5v8l5.5.1h5.5l.1 17.5c.1 18.6.9 23.1 4.8 26.8 6 5.7 18.2 6 26.3.7 3.6-2.3 3.9-3.3 1.9-6.1-1.4-1.9-1.5-1.9-6.3-.2-7.6 2.7-15.4 1.2-16.8-3.4-1.2-3.6-.9-34 .2-34.7.6-.4 4.9-.6 9.5-.5 12.1.3 12.8 0 12.8-4.6v-3.8l-11.1-.1c-6.1 0-11.3-.3-11.7-.6-.3-.4-.6-4.6-.6-9.4l-.1-8.7-4.5-.3-4.5-.3v9.1zm-252.6 9.5c-6.3 1.4-9.6 2.7-12.5 5.2-5.2 4.3-6.5 12.5-2.9 17.9 1.4 2.1 7.7 6.7 9.5 7 1.6.2 13.3 2.9 17.7 4.1 10.6 2.9 11 10.9.8 14.4-2.2.7-4.2 1.3-4.5 1.2-.3 0-3.6-.4-7.3-.7-3.8-.3-8.7-1.5-11-2.6-2.2-1.1-4.2-2-4.3-2-.2 0-1.2 1.3-2.4 2.9l-2.1 3 4.6 2.6c9.6 5.7 23.4 6.6 33.6 2.2 8.9-3.8 12.7-14 7.8-21.1-2.2-3.2-8.4-7.2-12.6-8.1-17.7-3.7-19.8-4.4-21.9-7.4-1.5-1.9-1-4.8 1.1-7.1 4-4.4 17.8-4.7 25.2-.5 2.5 1.4 4.7 2.5 4.8 2.5.1 0 .8-1.4 1.5-3 1.5-3.7.6-5-5.7-8-6.5-3-12.9-3.9-19.4-2.5zm350-.4c-15.2 2.3-25.1 13.5-25.5 28.4-.2 9.3 1.9 14.7 8.1 21.1 9.1 9.5 23.7 11.8 36.9 6 8.5-3.8 8.9-4.2 6.9-7.7-1.2-2-2.3-2.7-3.3-2.3-3.4 1.5-9.6 3.6-12 4.1-7.5 1.7-16.6-.5-21.1-4.9-3.3-3.4-6.5-9.6-5.4-10.7.4-.3 10.9-.6 23.3-.6h22.7l-.1-6.5c-.1-3.6-.9-8.2-1.7-10.3-.9-2-1.5-3.9-1.4-4.2.1-.2-1.4-2-3.3-4-4.2-4.4-9.5-7.3-14.4-7.9-1.9-.2-3.9-.6-4.3-.8-.4-.3-2.9-.1-5.4.3zm12.9 10.9c4.2 2.4 8.2 8.2 8.2 12.1v2.4l-18.5-.3c-20.2-.3-20.1-.3-17.1-6 5.2-10 17.6-13.7 27.4-8.2zm-458.1-9.6c-15.6 5.7-23.4 22.3-17.9 38.2 3.8 11 14.4 18.4 26.8 18.9 8.9.3 18.7-2.4 24.1-6.7 1.7-1.4-1.7-7-3.7-6.2-12.8 5.5-22 6-30 1.9-3.4-1.8-7.9-7.6-8.6-11.2l-.6-2.9 23.1.1c25.9.1 24.6.5 23.6-7.6-1.6-13-8.1-22.1-17.7-24.6-4.9-1.3-15.4-1.3-19.1.1zm17.5 8.7c5.1 2.6 8.3 6.5 9.8 12l.9 2.9h-38.1l.7-2.8c1.4-6 6.8-11.3 13.3-13.2 3.5-1 10.6-.4 13.4 1.1zm245.5-9.1c-3.7 1-11.1 4.4-13.4 6.2-.8.6-.7 1.6.4 3.8 1.5 3.1 2.3 3.6 3.9 2.2 2.1-1.9 10.5-4.3 16.1-4.7 8.2-.5 13.6 2 15.3 6.9.6 2 .9 3.9.6 4.4-.3.5-3.1.7-6.3.6-6.6-.3-17.6 1.7-22.7 4.1-15.9 7.5-15.9 27.3-.1 32.8 7.1 2.5 18.7.6 25.5-4.3 3.7-2.6 4.2-2.5 3.8.7-.2 2.2.2 2.8 2.2 3.3 1.4.3 3.5.4 4.8.2l2.4-.5-.4-22.2-.3-22.2-2.9-4.1c-1.6-2.3-4.3-4.9-6-5.8-3.7-2-17.3-2.8-22.9-1.4zm22.5 32.1c-.2 2.4-.8 4.7-1.4 5-.5.3-.8.9-.6 1.2.1.3-.8 2-2.1 3.7-3.1 4.3-9.9 7.2-15.9 6.9-7.7-.4-11.2-3-11.2-8.6 0-7.6 10.6-13.1 25-12.8l6.5.1-.3 4.5z"/></svg>