<?xml version="1.0" standalone="no"?>
<!DOCTYPE svg PUBLIC "-//W3C//DTD SVG 20010904//EN"
 "http://www.w3.org/TR/2001/REC-SVG-20010904/DTD/svg10.dtd">
<svg version="1.0" xmlns="http://www.w3.org/2000/svg"
 width="1072.000000pt" height="1072.000000pt" viewBox="0 0 1072.000000 1072.000000"
 preserveAspectRatio="xMidYMid meet">
<metadata>
Created by potrace 1.14, written by Peter Selinger 2001-2017
</metadata>
<g transform="translate(0.000000,1072.000000) scale(0.100000,-0.100000)"
fill="#000000" stroke="none">
<path d="M4985 8526 c-68 -24 -99 -42 -146 -85 -110 -98 -194 -235 -248 -404
-44 -136 -54 -198 -55 -342 -1 -146 6 -213 35 -330 19 -75 27 -102 45 -150 4
-11 8 -22 8 -25 4 -22 100 -246 141 -330 46 -92 70 -145 120 -265 17 -41 47
-116 80 -200 15 -38 31 -79 35 -90 12 -29 37 -114 46 -155 4 -19 9 -39 10 -45
4 -19 15 -80 21 -115 8 -49 11 -423 4 -435 -3 -5 -7 -20 -9 -33 -10 -78 -81
-198 -164 -280 -89 -88 -107 -93 -203 -63 -33 10 -69 17 -80 14 -11 -3 -56 -7
-100 -10 -44 -2 -84 -5 -88 -6 -4 -1 6 -16 22 -33 17 -17 41 -57 53 -89 39
-102 70 -122 268 -170 36 -8 74 -18 85 -21 39 -11 143 -12 186 -3 112 25 212
101 286 217 36 56 90 169 97 205 3 12 7 33 10 47 3 14 8 36 11 50 8 37 8 186
1 260 -4 36 -9 89 -11 119 -3 30 -7 61 -9 70 -3 9 -7 36 -10 61 -8 56 -13 90
-28 160 -6 30 -12 62 -14 70 -1 8 -7 30 -12 48 -6 18 -11 35 -11 37 -2 16 -16
70 -38 142 -13 45 -23 84 -21 86 2 2 -2 10 -8 18 -6 8 -19 39 -29 69 -10 30
-35 92 -57 138 -21 46 -44 98 -52 115 -21 48 -60 133 -100 220 -20 43 -36 80
-36 82 0 2 -13 32 -29 67 -87 188 -109 328 -88 543 6 65 40 203 57 235 6 11 8
20 5 20 -2 0 16 39 41 88 47 89 102 168 154 222 l30 31 1 -208 0 -208 20 43
c10 24 21 71 24 105 5 66 19 135 29 144 16 17 6 -156 -13 -223 -9 -32 -9 -160
1 -169 7 -7 58 16 58 26 0 5 7 6 15 3 8 -4 15 -12 15 -20 0 -7 10 -20 22 -28
28 -20 49 -8 86 47 73 106 108 215 90 282 -4 16 -9 41 -12 55 -2 14 -11 57
-21 95 -9 39 -19 79 -21 90 -3 11 -6 29 -8 40 -5 38 -35 83 -88 130 -73 66
-98 74 -216 73 -84 -1 -114 -6 -187 -32z m-195 -231 c-72 -117 -123 -261 -155
-440 -7 -42 -18 -189 -19 -257 -1 -39 -4 -54 -11 -47 -13 13 -17 248 -5 309
15 80 27 129 45 190 17 56 87 190 127 243 39 52 50 54 18 2z m382 -2670 c1
-78 -4 -113 -20 -158 -31 -86 -88 -169 -152 -222 l-25 -20 15 20 c8 11 17 22
20 25 14 13 61 92 75 126 30 69 43 115 52 184 3 25 7 52 9 60 1 8 3 44 4 80 2
57 3 62 12 35 5 -16 10 -75 10 -130z"/>
<path d="M137 8544 c-1 -1 -17 -4 -35 -7 -42 -7 -40 -5 -45 -50 -5 -40 -16
-62 -16 -31 0 11 -2 28 -5 39 -2 11 -5 25 -6 30 0 6 -8 -2 -16 -18 -14 -27
-14 -98 1 -257 3 -41 12 -157 20 -286 2 -27 6 -68 9 -90 3 -21 8 -70 11 -109
8 -92 20 -194 30 -244 2 -12 7 -50 10 -84 4 -34 8 -64 10 -67 2 -3 6 -30 9
-60 4 -30 8 -66 10 -80 3 -14 10 -61 16 -105 6 -44 14 -93 16 -110 10 -60 13
-81 24 -160 6 -44 13 -92 16 -107 2 -16 6 -40 8 -55 17 -108 29 -192 32 -218
1 -16 3 -30 4 -30 1 0 3 -9 4 -20 3 -26 17 -112 21 -133 1 -10 6 -39 9 -67 4
-27 13 -88 21 -135 7 -47 16 -105 19 -130 3 -25 8 -56 11 -70 3 -14 7 -43 10
-65 2 -22 7 -51 9 -65 3 -14 10 -61 16 -105 7 -44 14 -87 15 -97 2 -9 7 -38
11 -65 3 -26 8 -57 10 -68 3 -11 7 -36 10 -55 3 -19 8 -38 11 -42 2 -5 6 -18
8 -30 7 -37 63 -141 93 -173 42 -46 143 -122 185 -140 43 -18 66 -10 85 27 9
19 82 249 97 308 3 8 16 58 30 110 14 52 28 103 30 113 2 10 7 27 10 37 3 10
8 27 10 37 2 10 16 68 31 128 14 61 27 115 28 120 6 26 29 132 31 145 2 8 4
15 5 15 1 0 3 9 5 20 2 11 6 34 9 50 3 17 6 33 7 37 0 4 5 22 10 40 5 18 12
48 15 67 7 39 9 51 22 111 6 25 13 65 17 90 4 25 11 65 17 90 5 25 12 59 14
75 3 17 9 53 15 80 14 76 17 90 23 126 3 19 8 45 10 59 3 14 12 66 20 115 9
50 18 101 21 115 3 14 8 43 11 65 7 46 5 36 39 225 14 80 28 160 31 179 3 18
8 43 10 55 2 11 7 37 10 56 3 19 10 55 15 79 5 24 12 65 15 90 3 25 7 48 9 51
18 30 27 363 11 450 -10 57 -33 147 -41 160 -7 11 -101 5 -164 -9 -20 -4 -46
-4 -58 0 -13 5 -27 3 -37 -4 -15 -11 -36 -96 -50 -202 -3 -22 -8 -55 -11 -72
-3 -18 -7 -48 -10 -65 -18 -119 -27 -173 -40 -248 -8 -47 -17 -101 -20 -120
-3 -19 -15 -87 -26 -150 -11 -63 -22 -131 -25 -150 -3 -19 -20 -127 -40 -240
-19 -113 -37 -221 -40 -240 -3 -19 -7 -46 -10 -60 -3 -14 -7 -38 -9 -55 -3
-16 -7 -41 -10 -55 -3 -14 -7 -41 -10 -60 -3 -19 -7 -46 -10 -60 -2 -13 -7
-42 -10 -65 -10 -66 -15 -99 -20 -115 -2 -8 -7 -31 -10 -50 -3 -19 -15 -73
-25 -120 -10 -47 -21 -96 -24 -110 -7 -38 -27 -133 -31 -150 -2 -8 -4 -19 -5
-25 -2 -18 -28 39 -34 75 -7 43 -25 163 -32 209 -2 19 -7 48 -9 65 -3 17 -10
56 -15 86 -10 60 -19 121 -25 160 -2 14 -20 124 -40 245 -47 291 -44 272 -57
340 -13 71 -16 89 -23 135 -2 19 -7 46 -10 60 -3 14 -7 36 -9 50 -13 78 -57
329 -61 350 -2 13 -7 42 -11 64 -3 22 -7 43 -9 46 -2 3 -6 30 -10 60 -3 29 -8
57 -10 61 -3 4 -7 24 -10 45 -21 144 -46 247 -87 354 -20 54 -27 60 -59 58
-17 -1 -31 -3 -32 -4z m1027 -106 c-4 -21 -8 -65 -19 -208 -4 -60 -15 -143
-22 -175 -2 -11 -6 -33 -8 -50 -4 -33 -14 -95 -21 -129 -4 -21 -11 -63 -20
-126 -2 -19 -6 -42 -9 -50 -4 -14 -13 -71 -20 -115 -1 -11 -3 -20 -4 -20 -2 0
-4 -18 -7 -40 -2 -22 -7 -51 -10 -65 -4 -14 -8 -41 -10 -60 -3 -33 -11 -75
-14 -75 -1 0 -3 -13 -5 -30 -10 -73 -15 -112 -20 -135 -3 -14 -7 -41 -10 -60
-2 -19 -11 -73 -20 -119 -9 -46 -18 -97 -20 -113 -2 -16 -6 -41 -9 -56 -3 -15
-8 -40 -11 -57 -10 -58 -27 -160 -30 -180 -2 -11 -9 -47 -16 -80 -6 -33 -12
-66 -12 -72 0 -7 -4 -13 -8 -13 -4 0 -6 -8 -5 -17 2 -10 0 -31 -4 -48 -4 -16
-20 -91 -35 -165 -15 -74 -29 -142 -32 -150 -6 -16 -8 -24 -17 -86 -7 -54 -20
-87 -40 -103 -15 -12 -16 -10 -11 25 6 42 13 86 19 119 2 11 6 36 10 55 3 19
8 46 11 60 3 14 8 40 11 59 3 18 8 43 10 55 3 11 7 35 9 51 3 17 7 41 10 55 2
14 7 36 10 50 2 14 7 41 10 60 4 19 10 54 16 78 5 23 12 59 15 78 3 20 8 46
11 58 2 11 6 32 8 46 2 14 7 41 11 60 11 54 13 62 19 105 3 22 12 72 20 110 8
39 17 86 20 105 3 19 17 100 31 180 32 191 33 195 39 233 3 17 7 43 10 57 2
14 7 45 11 70 3 24 7 47 9 50 2 3 6 28 9 55 8 55 14 90 16 90 1 0 3 14 5 30 1
17 12 89 24 160 12 72 24 146 27 165 2 19 7 45 9 57 3 12 7 41 10 65 3 24 8
50 10 58 2 8 7 30 10 49 6 33 22 71 30 71 2 0 2 -10 -1 -22z m-1064 -443 c0
-8 -2 -15 -4 -15 -2 0 -6 7 -10 15 -3 8 -1 15 4 15 6 0 10 -7 10 -15z"/>
<path d="M10020 8488 c-94 -39 -187 -207 -245 -438 -29 -118 -37 -149 -41
-170 -16 -86 -24 -131 -29 -175 -8 -77 -16 -137 -21 -175 -3 -19 -7 -51 -9
-70 -2 -19 -7 -62 -10 -95 -8 -75 -11 -99 -19 -155 -3 -25 -8 -72 -11 -105 -3
-33 -8 -76 -10 -95 -12 -105 -17 -150 -20 -195 -2 -27 -6 -70 -9 -95 -8 -64
-15 -144 -21 -220 -3 -36 -8 -96 -11 -135 -10 -116 -13 -163 -19 -320 -3 -82
-8 -193 -10 -245 -3 -81 -17 -475 -17 -505 -2 -72 44 -206 82 -240 22 -20 27
-21 98 -31 l42 -6 1 38 c0 22 2 62 4 89 2 28 6 109 10 180 13 316 19 393 28
401 1 1 38 4 82 8 44 3 98 9 120 11 40 6 64 8 210 20 44 3 86 8 93 10 8 3 12
-7 13 -28 0 -18 2 -54 4 -81 2 -26 6 -112 9 -190 8 -178 12 -235 27 -316 13
-74 26 -103 40 -95 5 4 7 11 4 16 -4 5 -1 9 4 9 6 0 11 -6 11 -12 1 -26 13
-123 16 -127 1 -1 15 1 31 7 23 7 38 4 85 -19 37 -19 59 -25 64 -18 15 24 19
120 18 409 -1 451 -19 875 -50 1190 -3 30 -7 75 -10 100 -3 45 -9 94 -20 180
-3 25 -7 61 -9 80 -2 19 -6 53 -8 75 -3 22 -9 65 -12 95 -3 30 -8 71 -11 90
-2 19 -6 53 -8 75 -3 22 -10 73 -15 113 -6 40 -13 94 -16 120 -3 26 -8 58 -10
72 -3 14 -8 45 -11 70 -3 25 -8 54 -10 65 -9 44 -16 82 -19 110 -3 17 -9 50
-14 75 -5 25 -12 59 -14 75 -7 41 -31 149 -61 275 -14 58 -27 116 -30 130 -3
14 -8 36 -11 50 -3 14 -9 39 -11 55 -8 43 -31 75 -57 76 -122 6 -145 4 -187
-13z m-123 -230 c-13 -37 -58 -192 -73 -253 -23 -102 -25 -108 -30 -135 -2
-14 -7 -36 -10 -50 -3 -14 -8 -38 -10 -55 -3 -16 -9 -52 -14 -80 -5 -27 -12
-75 -16 -105 -3 -30 -8 -64 -10 -74 -2 -11 -6 -44 -9 -75 -3 -31 -8 -74 -11
-96 -11 -79 -26 -235 -28 -287 0 -21 -3 -38 -6 -38 -3 0 -5 -24 -6 -53 0 -28
-4 -83 -7 -122 -4 -38 -9 -95 -11 -125 -3 -30 -7 -75 -10 -100 -2 -25 -7 -76
-11 -115 -3 -38 -8 -86 -10 -105 -3 -19 -7 -66 -11 -105 -3 -38 -8 -78 -10
-90 -2 -11 -6 -45 -9 -75 -6 -66 -12 -101 -20 -108 -5 -6 0 112 10 221 3 28 7
77 9 107 3 30 7 78 10 105 7 70 15 148 21 230 4 39 8 81 10 95 2 14 7 59 10
100 13 157 32 356 40 420 4 33 13 120 20 185 1 17 5 44 9 60 3 17 8 53 11 80
3 28 7 61 10 75 3 14 7 39 10 55 3 17 7 41 10 55 3 14 8 40 11 59 9 52 11 61
29 131 9 36 18 72 20 80 5 22 56 184 62 193 7 12 25 8 20 -5z m219 -144 c23
-120 31 -180 27 -186 -2 -5 -1 -8 4 -8 4 0 8 -10 9 -22 0 -13 4 -45 8 -73 4
-27 9 -60 11 -72 2 -12 10 -68 19 -125 9 -57 18 -123 21 -147 2 -24 7 -60 10
-80 2 -20 7 -56 9 -81 3 -25 7 -67 10 -95 5 -49 14 -147 21 -235 14 -162 19
-326 20 -624 l0 -339 -35 -2 c-19 -2 -75 -6 -125 -9 -49 -4 -124 -9 -165 -12
-72 -6 -115 -7 -153 -5 -17 1 -18 8 -12 77 8 96 13 146 21 209 4 28 8 66 9 85
3 43 14 161 19 215 17 166 21 207 30 300 4 33 8 76 11 95 2 19 7 62 10 95 3
33 8 76 10 95 3 19 7 60 10 90 8 98 14 154 21 200 4 25 8 54 9 65 15 117 117
551 141 597 18 34 23 33 30 -8z m211 -1391 c-3 -10 -5 -2 -5 17 0 19 2 27 5
18 2 -10 2 -26 0 -35z m20 -560 c-1 -65 -3 -12 -3 117 0 129 2 182 3 118 2
-65 2 -171 0 -235z m-772 -603 c0 -116 -2 -210 -5 -210 -16 0 -17 366 -1 418
5 14 6 -29 6 -208z m792 148 c-3 -8 -6 -5 -6 6 -1 11 2 17 5 13 3 -3 4 -12 1
-19z m6 -48 c-7 -27 -13 -25 -11 4 1 14 5 23 9 20 4 -2 5 -13 2 -24z m2 -39
c3 -5 2 -12 -3 -15 -5 -3 -9 1 -9 9 0 17 3 19 12 6z m-8 -68 c-3 -10 -5 -4 -5
12 0 17 2 24 5 18 2 -7 2 -21 0 -30z m0 -45 c-3 -8 -6 -5 -6 6 -1 11 2 17 5
13 3 -3 4 -12 1 -19z m8 -42 c0 -15 -4 -21 -9 -16 -5 5 -6 16 -3 24 9 22 12
20 12 -8z m-8 -73 c-3 -10 -5 -4 -5 12 0 17 2 24 5 18 2 -7 2 -21 0 -30z m0
-45 c-3 -8 -6 -5 -6 6 -1 11 2 17 5 13 3 -3 4 -12 1 -19z m-790 -30 c-3 -8 -6
-5 -6 6 -1 11 2 17 5 13 3 -3 4 -12 1 -19z"/>
<path d="M2390 8483 c-19 -9 -53 -16 -74 -17 -39 -1 -41 -2 -78 -77 -69 -135
-68 -122 -63 -909 3 -388 7 -797 10 -910 2 -113 7 -311 10 -440 13 -610 15
-656 30 -865 4 -50 14 -157 21 -210 14 -122 11 -117 79 -130 159 -30 419 -23
517 14 63 24 145 92 179 149 13 20 25 39 28 42 25 23 108 256 125 350 3 19 8
46 11 60 40 197 39 704 -1 960 -3 19 -7 51 -10 70 -2 19 -9 50 -14 70 -5 19
-11 48 -14 63 -21 122 -139 417 -167 417 -5 0 -9 5 -9 11 0 6 -19 34 -42 63
-110 135 -185 175 -340 179 -73 2 -77 3 -83 27 -9 34 -14 182 -30 825 -2 88
-6 169 -9 180 -2 11 -5 27 -5 36 -1 9 -9 26 -18 37 -17 19 -20 19 -53 5z
m-154 -624 c2 -107 6 -248 8 -314 8 -251 8 -316 2 -322 -21 -22 -27 55 -30
427 -2 299 1 417 10 407 3 -2 7 -92 10 -198z m20 -867 c1 -48 5 -199 8 -337 6
-239 9 -336 20 -740 3 -99 8 -292 12 -430 3 -137 7 -283 8 -322 2 -40 -1 -73
-6 -73 -4 0 -8 15 -9 33 0 35 -4 99 -13 252 -34 542 -52 1735 -27 1709 3 -2 6
-44 7 -92z m336 -81 c52 -61 116 -176 143 -254 23 -70 53 -220 60 -302 2 -22
6 -50 9 -62 2 -12 7 -54 11 -93 4 -39 9 -86 11 -103 17 -124 23 -526 11 -634
-11 -89 -47 -216 -73 -256 -14 -21 -39 -47 -57 -57 -34 -21 -108 -27 -150 -11
l-24 9 6 159 c12 334 4 1505 -10 1611 -7 44 22 41 63 -7z m158 -73 c0 -4 13
-36 29 -71 38 -84 78 -202 86 -252 3 -23 8 -52 11 -65 14 -68 32 -225 50 -435
6 -69 9 -254 5 -365 -1 -47 -19 -27 -25 30 -6 47 -15 166 -21 285 -3 39 -7 97
-10 130 -3 33 -7 85 -10 115 -4 48 -10 104 -20 200 -17 156 -92 367 -167 473
-44 63 -23 74 28 14 24 -28 44 -55 44 -59z"/>
<path d="M6916 8492 c-3 -2 -51 -5 -108 -6 -150 -4 -194 -30 -283 -166 -87
-133 -169 -349 -200 -529 -3 -19 -7 -37 -9 -40 -2 -3 -7 -26 -10 -51 -3 -25
-8 -56 -11 -70 -9 -42 -13 -72 -20 -130 -3 -30 -8 -71 -10 -90 -3 -19 -7 -66
-10 -105 -4 -38 -8 -92 -10 -120 -19 -214 -38 -782 -39 -1120 -1 -292 5 -356
50 -522 81 -304 239 -507 447 -578 126 -42 240 -49 302 -17 102 52 183 199
210 382 3 20 7 45 9 57 3 11 7 38 10 59 3 22 8 50 11 64 2 14 7 41 9 60 3 19
8 44 10 56 2 12 7 45 11 74 4 29 9 62 11 74 2 12 6 41 9 66 3 25 7 56 10 70 4
24 12 100 20 185 45 479 64 1485 31 1700 -2 17 -7 50 -10 75 -6 50 -13 85 -31
176 -34 161 -106 333 -162 386 -40 37 -98 59 -170 62 -35 2 -65 1 -67 -2z
m-351 -221 c-2 -10 -12 -38 -23 -62 -18 -41 -78 -204 -88 -239 -22 -84 -55
-221 -59 -250 -3 -20 -7 -45 -9 -56 -2 -11 -7 -47 -11 -79 -4 -33 -9 -69 -12
-80 -2 -11 -6 -45 -8 -75 -6 -58 -11 -120 -20 -210 -3 -30 -7 -89 -10 -130 -3
-41 -8 -95 -10 -120 -6 -62 -15 -211 -31 -545 -3 -66 -7 -223 -9 -350 -5 -291
-4 -279 -9 -274 -19 19 -27 495 -12 694 4 55 9 129 11 165 8 133 16 256 20
300 2 25 7 83 10 130 3 47 8 96 10 110 2 14 7 61 10 105 3 44 8 91 10 105 2
14 7 54 10 90 12 119 16 155 20 180 2 14 7 48 11 75 8 62 9 67 48 215 2 8 10
29 16 45 6 17 13 37 15 45 6 30 39 106 73 168 33 61 54 80 47 43z m382 -63
c19 -21 55 -123 66 -188 3 -14 10 -43 15 -65 12 -42 16 -67 28 -150 3 -27 8
-59 11 -70 5 -25 15 -185 15 -245 0 -25 0 -92 -1 -150 0 -58 0 -112 0 -120 3
-179 -19 -822 -37 -1050 -8 -105 -22 -235 -29 -260 -2 -8 -7 -35 -10 -60 -9
-64 -15 -103 -20 -120 -2 -8 -7 -33 -10 -55 -3 -23 -8 -52 -11 -65 -3 -14 -7
-38 -9 -55 -3 -16 -7 -41 -10 -55 -5 -24 -15 -88 -20 -120 -10 -69 -37 -126
-82 -168 -42 -39 -55 -37 -110 21 -64 65 -67 68 -105 132 -72 118 -102 284
-101 560 0 77 3 178 6 225 13 168 20 276 21 322 1 27 3 48 6 48 3 0 5 24 6 53
0 28 4 97 9 152 4 55 9 120 10 145 2 25 6 77 9 115 4 39 9 99 11 135 13 165
19 225 35 335 5 33 12 78 15 100 9 60 71 313 90 370 10 28 19 55 20 60 1 6 5
17 8 25 3 8 17 48 31 88 30 83 44 114 60 124 22 15 63 8 83 -14z m207 -1228
c-2 -224 -7 -381 -18 -522 -3 -29 -8 -93 -11 -143 -7 -95 -8 -112 -19 -215 -9
-80 -15 -134 -21 -180 -2 -19 -7 -60 -11 -90 -10 -81 -12 -95 -14 -95 -2 0 -4
-11 -6 -25 -9 -76 -15 -112 -29 -175 -9 -38 -18 -80 -21 -91 -8 -42 -45 -156
-49 -152 -2 2 5 42 15 88 10 47 21 96 24 110 3 14 7 34 9 45 4 19 33 189 42
245 12 75 29 227 40 355 3 33 8 83 10 110 5 49 13 177 20 305 7 118 17 383 20
535 2 83 5 168 6 190 l2 40 6 -45 c3 -25 5 -155 5 -290z"/>
<path d="M8238 8475 c-2 -2 -41 -6 -88 -9 -73 -5 -122 -11 -165 -20 -48 -11
-95 -32 -95 -43 0 -7 7 -13 15 -13 26 0 47 -45 40 -87 -5 -35 -3 -39 17 -39
25 -1 142 -13 180 -19 13 -2 71 -9 130 -16 l108 -12 -7 -56 c-4 -31 -8 -68 -8
-83 0 -16 -2 -28 -5 -28 -3 0 -5 -21 -6 -48 -1 -26 -4 -146 -8 -267 -4 -121
-9 -274 -11 -340 -4 -144 -15 -511 -20 -650 -3 -95 -12 -392 -20 -650 -2 -66
-7 -212 -10 -325 -10 -305 -10 -562 1 -589 10 -22 11 -22 27 -6 11 11 17 34
18 68 0 29 2 88 4 132 3 87 15 487 20 705 8 315 17 726 20 865 2 83 4 150 4
150 2 0 13 299 15 382 0 40 4 73 7 73 4 0 3 16 -1 34 -4 19 -6 37 -3 40 3 2 6
51 8 108 9 272 16 398 25 427 5 17 9 35 9 38 0 4 4 9 10 11 10 3 17 -62 12
-92 -1 -6 -4 -71 -7 -145 -2 -75 -7 -185 -9 -246 -12 -267 -23 -614 -30 -979
-5 -242 -12 -485 -19 -726 -3 -80 -8 -246 -12 -370 -3 -124 -8 -254 -9 -290
-9 -204 -6 -287 9 -324 l16 -38 27 17 c16 10 43 28 60 42 l33 24 6 -43 c12
-71 71 -110 117 -75 29 21 31 65 52 1087 8 384 15 661 21 840 19 550 18 911
-1 1170 -4 52 -8 109 -9 125 l-1 30 85 -2 c47 0 134 -3 195 -6 77 -3 121 -1
147 9 21 7 39 13 41 13 9 -1 57 22 57 28 0 5 -14 16 -30 25 -27 15 -29 20 -23
50 14 66 10 81 -22 89 -16 5 -45 11 -63 14 -19 3 -37 7 -41 9 -3 2 -35 7 -71
11 -36 4 -74 9 -85 12 -20 5 -652 12 -657 8z"/>
<path d="M3558 8429 c-39 -22 -47 -89 -53 -454 -3 -192 -7 -386 -10 -430 -3
-72 -7 -169 -20 -545 -2 -63 -7 -191 -10 -285 -35 -930 -44 -1396 -31 -1535
10 -110 15 -139 42 -232 4 -14 18 -17 74 -17 38 0 72 3 74 7 5 8 16 137 21
242 2 41 7 120 10 175 8 140 14 282 20 485 3 96 8 231 10 300 2 69 7 215 10
325 3 110 8 245 10 300 2 55 7 183 10 285 3 102 8 226 10 275 3 96 15 411 20
560 2 50 4 101 4 113 1 13 6 22 12 20 14 -5 12 -283 -6 -788 -3 -96 -8 -231
-10 -300 -2 -69 -6 -188 -9 -265 -4 -77 -8 -198 -11 -270 -3 -71 -8 -184 -10
-250 -3 -66 -7 -160 -10 -210 -3 -49 -7 -146 -10 -215 -4 -69 -8 -168 -11
-220 -2 -52 -6 -153 -9 -225 -5 -144 -12 -255 -18 -297 -9 -61 37 -9 47 52 19
118 26 235 42 780 3 113 8 255 10 315 4 113 4 120 3 158 -1 12 2 90 5 172 3
83 8 211 11 285 6 144 11 271 20 439 13 247 18 400 19 611 1 232 -4 313 -25
438 -12 70 -13 73 -36 67 -20 -5 -23 -1 -25 22 -3 67 -5 84 -10 88 -3 3 -21
-2 -41 -10 -33 -14 -37 -13 -49 3 -20 28 -51 42 -70 31z"/>
<path d="M1070 3556 l0 -81 4240 0 c2819 0 4240 3 4241 10 0 6 2 40 2 78 2 52
-1 68 -13 71 -8 2 -1917 4 -4242 4 l-4228 -1 0 -81z"/>
<path d="M4598 3073 c-2 -5 -4 -46 -3 -93 0 -83 0 -85 -25 -91 -14 -3 -37 -2
-52 2 -16 4 -29 5 -29 1 -6 -28 -4 -82 3 -84 4 0 26 -2 48 -4 22 -1 44 -3 48
-3 5 -1 8 -72 8 -158 -1 -87 3 -176 8 -198 13 -58 48 -101 98 -117 63 -21 143
-12 202 23 40 23 43 34 21 67 -15 21 -17 21 -40 6 -38 -25 -139 -27 -167 -4
-22 18 -23 23 -23 201 l0 183 112 -1 111 0 0 44 0 44 -36 -1 c-20 -1 -72 -2
-114 -1 l-78 1 0 95 0 95 -44 0 c-25 0 -46 -3 -48 -7z"/>
<path d="M6345 2990 c1 -49 -1 -94 -4 -98 -4 -4 -28 -7 -56 -7 l-50 0 0 -40 0
-40 55 -1 55 0 1 -175 c1 -186 9 -231 48 -268 60 -57 182 -60 263 -7 36 23 39
33 19 61 -14 19 -15 19 -63 2 -76 -27 -154 -12 -168 34 -12 36 -9 340 2 347 6
4 49 6 95 5 121 -3 128 0 128 46 l0 38 -111 1 c-61 0 -113 3 -117 6 -3 4 -6
46 -6 94 l-1 87 -45 3 -45 3 0 -91z"/>
<path d="M3819 2895 c-63 -14 -96 -27 -125 -52 -52 -43 -65 -125 -29 -179 14
-21 77 -67 95 -70 16 -2 133 -29 177 -41 106 -29 110 -109 8 -144 -22 -7 -42
-13 -45 -12 -3 0 -36 4 -73 7 -38 3 -87 15 -110 26 -22 11 -42 20 -43 20 -2 0
-12 -13 -24 -29 l-21 -30 46 -26 c96 -57 234 -66 336 -22 89 38 127 140 78
211 -22 32 -84 72 -126 81 -177 37 -198 44 -219 74 -15 19 -10 48 11 71 40 44
178 47 252 5 25 -14 47 -25 48 -25 1 0 8 14 15 30 15 37 6 50 -57 80 -65 30
-129 39 -194 25z"/>
<path d="M7319 2899 c-152 -23 -251 -135 -255 -284 -2 -93 19 -147 81 -211 91
-95 237 -118 369 -60 85 38 89 42 69 77 -12 20 -23 27 -33 23 -34 -15 -96 -36
-120 -41 -75 -17 -166 5 -211 49 -33 34 -65 96 -54 107 4 3 109 6 233 6 l227
0 -1 65 c-1 36 -9 82 -17 103 -9 20 -15 39 -14 42 1 2 -14 20 -33 40 -42 44
-95 73 -144 79 -19 2 -39 6 -43 8 -4 3 -29 1 -54 -3z m129 -109 c42 -24 82
-82 82 -121 l0 -24 -185 3 c-202 3 -201 3 -171 60 52 100 176 137 274 82z"/>
<path d="M2867 2886 c-156 -57 -234 -223 -179 -382 38 -110 144 -184 268 -189
89 -3 187 24 241 67 17 14 -17 70 -37 62 -128 -55 -220 -60 -300 -19 -34 18
-79 76 -86 112 l-6 29 231 -1 c259 -1 246 -5 236 76 -16 130 -81 221 -177 246
-49 13 -154 13 -191 -1z m175 -87 c51 -26 83 -65 98 -120 l9 -29 -191 0 -190
0 7 28 c14 60 68 113 133 132 35 10 106 4 134 -11z"/>
<path d="M5497 2890 c-37 -10 -111 -44 -134 -62 -8 -6 -7 -16 4 -38 15 -31 23
-36 39 -22 21 19 105 43 161 47 82 5 136 -20 153 -69 6 -20 9 -39 6 -44 -3 -5
-31 -7 -63 -6 -66 3 -176 -17 -227 -41 -159 -75 -159 -273 -1 -328 71 -25 187
-6 255 43 37 26 42 25 38 -7 -2 -22 2 -28 22 -33 14 -3 35 -4 48 -2 l24 5 -4
222 -3 222 -29 41 c-16 23 -43 49 -60 58 -37 20 -173 28 -229 14z m225 -321
c-2 -24 -8 -47 -14 -50 -5 -3 -8 -9 -6 -12 1 -3 -8 -20 -21 -37 -31 -43 -99
-72 -159 -69 -77 4 -112 30 -112 86 0 76 106 131 250 128 l65 -1 -3 -45z"/>
</g>
</svg>
