<svg width="67" height="40" fill="none" xmlns="http://www.w3.org/2000/svg"><path d="M8.405.253c.26-.03.26.26.314.459.428 1.545.144 3.066-.145 4.588-.514 2.837-.972 5.675-1.522 8.488-.543 2.753-1.177 5.476-2.035 8.144-.169.513-.26.574-.718.374-.344-.145-.972-.718-1.202-1.002-.428-.573-.543-1.262-.658-1.95-.284-1.805-.543-3.64-.833-5.445C1.232 11.27.803 8.632.459 5.994.229 4.219.145 2.438 0 .664c0-.17.06-.315.2-.49.03.2.06.399.114.719.03-.314.054-.49.084-.719C.682.144.942.09 1.256.06c.314.627.489 1.292.604 1.95.428 2.348.833 4.702 1.231 7.05.344 2.035.658 4.07.972 6.11.03.06.085.145.17.405.229-1.147.458-2.095.627-3.037.514-3.012 1.003-6.019 1.522-9.031.145-.888.26-1.805.429-2.723.054-.26.084-.628.513-.344-.085.23-.23.459-.26.718-.398 2.44-.773 4.872-1.201 7.311-.46 2.638-.972 5.277-1.461 7.915-.03.23-.055.459-.085.688.169-.084.23-.2.26-.284.314-1.636.688-3.211.972-4.847.513-2.953 1.002-5.905 1.491-8.863.145-.887.17-1.775.26-2.668.374-.055.718-.145 1.086-.145l.019-.012zM.634 3.633c-.03-.114-.03-.229-.03-.344h-.06v.345h.089zm.084.948v.399h.03v-.4h-.03zM23.1 13.015c-.114 3.212-.168 6.424-.428 9.66h-.918c-.314-.918-.344-1.89-.344-2.868.055-2.004.085-4.045.17-6.08l.343-9.659c.03-.688 0-1.376 0-2.064 0-.284.03-.604.115-.858.17-.489.398-.489.743-.03.145-.06.26-.115.459-.2.03.285.054.544.084.774.085-.03.17-.055.26-.085.374 1.576.284 3.182.23 4.757-.055 1.751-.17 3.496-.23 5.246-.115 3.013-.17 5.995-.29 9.002-.03.489-.085 1.002-.145 1.491a.718.718 0 01-.314.513c.03-.26.054-.513.085-.803.084-2.324.199-4.642.313-6.936.115-3.013.23-6.02.314-9.002.03-.833.03-1.69.03-2.523h-.144c-.115 3.212-.23 6.423-.344 9.665h.012zm-7.413-5.62c1.461-.03 1.98.26 2.807 1.407.514.688.834 1.46 1.033 2.294.604 2.15.658 4.359.513 6.568a9.437 9.437 0 01-.742 3.297c-.43 1.002-1.117 1.75-2.234 1.835-.948.084-1.92.06-2.899-.145-.054-.23-.114-.404-.114-.604-.085-.917-.2-1.805-.23-2.723-.084-2.921-.145-5.88-.199-8.802-.054-2.463-.054-4.932-.054-7.37-.03-.949.145-1.866.742-2.609.17 0 .345.085.46.03.458-.23.488-.26.603.2.06.169.06.344.085.543.03 1.89.084 3.755.144 5.65 0 .145.055.26.085.43zm-1.775-4.733c-.115 1.92-.145 3.816.03 5.705h.145c-.054-1.89-.115-3.785-.17-5.705h-.005zm.169 6.309c-.284.887.084 12.527.344 13.215l-.344-13.215zm1.72 1.087c.061 1.865.146 3.755.146 5.62 0 1.89-.06 3.755-.115 5.675.833.26 1.407.03 1.66-.857a8.4 8.4 0 00.29-1.66c.085-2.035-.145-4.045-.459-6.05-.114-.833-.459-1.605-.972-2.294-.115-.169-.284-.314-.429-.489-.03.03-.084.03-.114.055h-.006zm2.525 8.288c0-.718.06-1.406 0-2.094-.115-1.178-.2-2.349-.43-3.526-.114-.658-.428-1.316-.718-1.95-.114-.26-.344-.459-.543-.718-.03.084-.06.145-.06.169.947 1.292 1.201 2.783 1.316 4.298.114 1.177.169 2.324.26 3.471 0 .115.03.23.054.345h.114l.007.005zm10.402 2.724c.314-.085.574 0 .833.114.314.145.604.055.834-.169.742-.658 1.316-1.43 1.376-2.493.115-1.521 0-3.012-.513-4.413-.459-1.232-.948-2.439-1.522-3.586-.628-1.292-1.147-2.578-1.346-3.984-.23-1.836.145-3.526 1.177-5.078A5.251 5.251 0 0130.57.46c.314-.199.688-.284 1.062-.404.23-.055.46-.03.689-.03.283 0 .628-.085.833.06.459.284.917.604 1.062 1.177.145.604.29 1.201.405 1.805.115.773-.314 1.346-.718 1.95-.2.26-.4.17-.628-.284a.944.944 0 01-.2.17c-.06.03-.145.06-.26.114-.229-.857.315-1.636.085-2.578-.26.658-.054 1.292-.459 1.92V1.751c-.199.2-.344.314-.428.429-1.087 1.376-1.522 2.952-1.407 4.672.06 1.003.543 1.92.948 2.838.374.833.773 1.69 1.147 2.523.857 2.095 1.292 4.275 1.43 6.508.085 1.232-.229 2.349-.971 3.327-.719.972-1.866 1.376-3.013.972-.23-.06-.429-.115-.658-.145-.658-.115-1.147-.344-1.316-1.063-.03-.23-.26-.374-.49-.688.46 0 .773.03 1.063-.054h-.018zm.115-14.453c-.03-1.95.23-3.755 1.346-5.36-1.232 1.2-1.835 3.61-1.346 5.36zM32.17 17.14c.084 1.43-.145 2.783-1.232 3.84 1.43-1.063 1.636-2.35 1.232-3.84zm13.644-2.059c-.17 1.866-.49 3.755-.803 5.59-.085.514-.399 1.033-.689 1.462a1.352 1.352 0 01-1.261.573c-1.292-.115-2.35-.604-3.098-1.805-.887-1.461-1.201-3.037-1.201-4.673 0-1.835.084-3.7.145-5.536.084-1.775.199-3.586.513-5.36.26-1.347.604-2.693 1.376-3.87.405-.628.834-1.063 1.637-1.003.344.055.688-.03 1.032-.06.688-.03 1.262.23 1.576.857.23.429.399.858.513 1.316.544 1.95.574 3.955.544 5.965-.03.26-.03.49-.03.688-.061 1.98-.085 3.93-.26 5.85l.006.006zm-6.11-7.83c.169-1.835.513-3.64 1.316-5.33.03-.061 0-.115-.03-.315-.17.314-.284.544-.405.743-.459 1.063-.773 2.15-.887 3.266-.2 1.805-.375 3.586-.49 5.361-.114 2.18-.398 4.359 0 6.568-.03-3.47.17-6.882.49-10.293h.006zm3.556 12.757c.26-1.69.658-3.381.773-5.102.199-2.638.199-5.276.23-7.914.03-1.461-.2-2.898-.605-4.299-.084-.284-.145-.604-.513-.628-.398-.03-.429.344-.543.604a20.025 20.025 0 00-1.262 5.62c-.2 2.44-.375 4.873-.544 7.281-.054 1.177-.03 2.325.23 3.472.23.887.742 1.575 1.461 2.119a1.58 1.58 0 00.773-1.147v-.006zm1.376-12.642c-.054 2.18-.084 4.413-.26 6.623-.144 2.21-.428 4.413-.971 6.568.857-1.43 1.606-9.834 1.231-13.191zm-.114-1.491v.573h.03v-.573h-.03zm7.173 14.506c.03-1.261.085-2.553.115-3.815.054-1.835.115-3.7.17-5.536.084-2.439.144-4.872.229-7.31.03-.514.114-1.063.168-1.577-.947-.114-1.835-.229-2.753-.313.03-.23.085-.43.03-.544-.06-.145-.26-.23-.404-.314.459-.314 1.377-.459 4.045-.459 1.377 0 2.753.03 4.13.405 0 .169-.03.284-.03.398-.03.085-.06.2-.085.314.145.085.29.17.43.26-1.148.688-2.235.115-3.298.26-.03.03-.084.06-.054.114.29 2.723.17 5.446.085 8.174-.115 3.297-.145 6.593-.23 9.89 0 .573-.03 1.146-.084 1.72 0 .199 0 .489-.314.513-.314 0-.514-.145-.544-.49 0-.084-.03-.168-.054-.343-.145.114-.23.199-.314.26a13.97 13.97 0 00-.429.259c-.06-.115-.145-.26-.169-.374-.054-.145-.03-.284-.03-.429.085-2.837.17-5.675.26-8.518.03-1.292.03-2.608.084-3.9.055-2.065.145-4.13.23-6.194v-.658h-.145c-.03.26-.085.489-.115.742-.084 2.18-.169 4.329-.26 6.478-.084 3.785-.169 7.57-.29 11.325 0 .17-.054.345-.084.49h-.169c-.054-.284-.115-.544-.115-.834l-.006.006zm13.772 2.065c-.085.03-.2.06-.374.144-.06-.458-.115-.857-.145-1.177 0 .085-.03.26-.055.429h-.145c-.344-1.43-.26-2.922-.374-4.443-1.087.114-2.15.199-3.266.314-.145 1.43-.115 2.921-.26 4.443-.344-.054-.574-.115-.803-.17-.49-.603-.574-1.315-.544-2.003.085-2.18.115-4.33.29-6.478.23-2.783.544-5.536.888-8.29.115-.971.398-1.95.658-2.921.115-.405.374-.773.574-1.147.344-.628.833-.888 1.545-.803.513.03.574 0 .688.513.2.887.399 1.775.604 2.668.544 2.524.803 5.102 1.117 7.686.399 3.38.49 6.797.514 10.208 0 .429-.085.858-.145 1.407-.344-.169-.544-.26-.773-.374l.006-.006zm-5.621-1.805v-3.526c-.2 1.147-.115 2.324 0 3.526zm1.92-18.866c-.115.314-.23.603-.314.887-.49 1.72-.743 3.471-.918 5.246-.26 2.44-.459 4.872-.688 7.311-.03.344 0 .658 0 1.002.169-1.177.29-2.348.398-3.525.145-1.546.26-3.127.429-4.673.23-2.095.513-4.16 1.201-6.164a.471.471 0 01-.114-.084h.006zm1.201 1.062c-.398 1.546-.803 3.127-.948 4.733-.23 2.18-.459 4.329-.658 6.508-.084.628-.115 1.262-.2 1.95a88.31 88.31 0 003.128-.199c.17-4.474-.283-8.832-1.117-13.33-.144.23-.169.284-.199.344l-.006-.006zm1.606 8.802v-.833h-.054v.833h.054zm.115 4.045v-2.867h-.06v2.897l.06-.03zm.084 2.035v2.493h.055v-2.524s-.03.03-.055.03z" fill="#606060"/><path d="M18.536 38.988a1.89 1.89 0 01-.731-.139 1.65 1.65 0 01-.936-.942 1.936 1.936 0 01-.133-.706 1.82 1.82 0 01.514-1.274 1.791 1.791 0 011.262-.513c.229 0 .446.036.651.114.206.073.38.188.532.338.15.151.271.339.356.562.085.223.133.483.133.779v.108c0 .03 0 .067-.012.103h-2.947c.043.338.194.616.435.833.242.218.562.32.948.32.193 0 .392-.03.598-.084.211-.055.404-.14.591-.248l.194.302A2.45 2.45 0 0118.53 39l.006-.012zm1.177-1.999a1.318 1.318 0 00-.115-.477 1.07 1.07 0 00-.26-.362 1.18 1.18 0 00-.833-.308c-.163 0-.326.03-.47.085a1.147 1.147 0 00-.387.235 1.376 1.376 0 00-.278.363c-.072.138-.12.295-.145.47h2.488v-.006zm4.467 1.999a2.97 2.97 0 01-.712-.097 2.028 2.028 0 01-.7-.356l.193-.302c.223.14.447.224.664.266.223.042.398.066.537.066.103 0 .212-.012.326-.03a1.37 1.37 0 00.326-.096.707.707 0 00.254-.176.404.404 0 00.103-.277.404.404 0 00-.103-.278.693.693 0 00-.254-.17 1.444 1.444 0 00-.326-.09c-.114-.018-.217-.042-.314-.06-.139-.024-.283-.06-.44-.097a2.379 2.379 0 01-.441-.163 1.02 1.02 0 01-.338-.277.688.688 0 01-.14-.441c0-.181.043-.338.14-.465.09-.127.205-.23.35-.308.139-.078.296-.133.459-.17a2.3 2.3 0 01.477-.053c.489 0 .9.157 1.232.47l-.164.308a1.684 1.684 0 00-1.062-.356c-.12 0-.242.012-.356.036a1.155 1.155 0 00-.308.103.569.569 0 00-.218.175.392.392 0 00-.084.242.36.36 0 00.102.26.778.778 0 00.254.168c.103.043.205.079.308.097.109.024.2.042.278.054.157.03.32.06.489.103.169.042.32.097.459.169.139.072.247.17.338.284a.74.74 0 01.133.459.791.791 0 01-.14.47c-.09.127-.205.23-.35.308a1.475 1.475 0 01-.464.17 2.39 2.39 0 01-.495.054h-.013zm3.896-3.491h.7v-1.195h.477v1.195h1.438v.435h-1.438v1.95c0 .205.049.368.151.49.103.12.266.18.49.18.132 0 .265-.018.398-.06.133-.036.266-.09.392-.163l.157.278a1.374 1.374 0 01-.5.29c-.176.054-.35.084-.52.084-.332 0-.586-.097-.767-.284-.18-.187-.271-.465-.271-.833v-1.938h-.7v-.435l-.007.006zm6.369 3.491a1.38 1.38 0 01-.49-.085 1.165 1.165 0 01-.374-.223.824.824 0 01-.23-.326 1.122 1.122 0 01-.078-.405c0-.193.055-.368.157-.537.103-.163.26-.308.471-.416.212-.11.471-.2.78-.254a3.992 3.992 0 011.086-.024h.085v-.09a.844.844 0 00-.073-.375.606.606 0 00-.2-.242.796.796 0 00-.289-.133 1.633 1.633 0 00-.35-.042c-.2 0-.41.03-.628.09a2.872 2.872 0 00-.646.266l-.163-.307c.193-.121.41-.23.658-.326.248-.097.525-.145.833-.145.17 0 .338.018.495.054a1.048 1.048 0 01.719.573 1.4 1.4 0 01.108.586v2.276h-.464v-.573a.81.81 0 01-.218.247 1.924 1.924 0 01-.743.35 1.843 1.843 0 01-.446.055v.006zm.072-.423c.133 0 .278-.018.435-.06.157-.042.302-.115.435-.224a1.26 1.26 0 00.332-.44c.09-.187.133-.429.133-.719h-.085a3.887 3.887 0 00-.882 0c-.253.03-.464.09-.627.17a.92.92 0 00-.38.295.657.657 0 00-.128.387c0 .205.073.35.224.446.145.097.332.14.55.14l-.007.005zm4.493-3.068h.7v-1.195h.477v1.195h1.437v.435h-1.437v1.95c0 .205.048.368.151.49.103.12.266.18.49.18.132 0 .265-.018.398-.06.133-.042.265-.09.392-.163l.157.278a1.374 1.374 0 01-.501.29 1.77 1.77 0 01-.52.084c-.331 0-.585-.097-.772-.284-.187-.187-.272-.465-.272-.833v-1.938h-.7v-.435.006zm6.967 3.491c-.266 0-.513-.048-.73-.139a1.647 1.647 0 01-.936-.942 1.933 1.933 0 01-.127-.706 1.821 1.821 0 01.513-1.274 1.791 1.791 0 011.262-.513c.23 0 .447.036.652.114.205.073.38.188.531.338.151.151.272.339.356.562.085.223.133.483.133.779v.108c0 .03 0 .067-.012.103h-2.946c.048.338.193.616.434.833.248.212.562.32.948.32a2.412 2.412 0 001.19-.332l.193.302a2.45 2.45 0 01-1.461.459v-.012zm1.177-1.999a1.32 1.32 0 00-.115-.477 1.07 1.07 0 00-.26-.362 1.18 1.18 0 00-.832-.308c-.163 0-.326.03-.471.085a1.146 1.146 0 00-.387.235 1.378 1.378 0 00-.277.363 1.406 1.406 0 00-.145.47h2.487v-.006z" fill="#606060" stroke="#fff" stroke-width=".1" stroke-miterlimit="10"/><path d="M6.678 31.266h53.03" stroke="#606060" stroke-miterlimit="10"/></svg>