<svg width="1260" height="760" fill="none" xmlns="http://www.w3.org/2000/svg"><path d="M789.764 138.735H276.273v5.638h513.491v-5.638zm-34.943 30.716H497.842v131.622h256.979V169.451zm-38.544 5.955h39.177m-135.698 0h34.785m-156.699 0h39.493" stroke="#BEBEBE" stroke-miterlimit="10"/><path d="M619.44 169.451h-81.795v131.701h81.795V169.451zm96.837 0h-61.736v131.701h61.736V169.451zm-306.495 0h-81.169v71.924h81.169v-71.924z" stroke="#BEBEBE" stroke-miterlimit="10"/><path d="M409.625 174.146h-77.252v67.222h77.252v-67.222zm-133.352-29.767v97.147" stroke="#BEBEBE" stroke-miterlimit="10"/><path d="M465.49 285.557V252.5l-28.21-61.116H10.834l92.92 50.301m4.939-.943v-49.358m109.295 49.358v-49.358m219.293 0v49.675" stroke="#BEBEBE" stroke-miterlimit="10"/><path d="M444.329 241.447H1.509v7.05h442.82v-7.05zm.048-.349l26.753 56.763v25.382h318.722V144.379M471.129 323.48l2.275 7.834-.053 123.663m316.501-295.325h74.034L1043.7 1" stroke="#BEBEBE" stroke-miterlimit="10"/><path d="M864.518 159.421H789.93v4.702h74.588v-4.702zm0 30.552H789.93v4.701h74.588v-4.701zm-3.764-25.382v25.23m-.159 5.328v115.169h-70.513" stroke="#BEBEBE" stroke-miterlimit="10"/><path d="M1102.22 242.628l-241.586 87.434-.118-21.274m-.153 21.511h47.71l210.137-67.46m-210.138 67.46l-1.174 121.75m-70.003-114.938v-5.599l-59.5-.039" stroke="#BEBEBE" stroke-miterlimit="10"/><path d="M789.852 323.243l-12.457 8.23H611.918v4.701l.475 116.225m224.7-115.756H611.449" stroke="#BEBEBE" stroke-miterlimit="10"/><path d="M647.645 452.287V336.682h3.765v115.605m32.43 0V336.682h3.765v115.605m69.102 0V336.682h3.759V451.93m73.335.357V336.682h3.053v115.605m236.456 34.316H444.336v-6.271h616.044" stroke="#BEBEBE" stroke-miterlimit="10"/><path d="M1037.27 476.791H452.322v.659h584.948v-.659z" fill="#BEBEBE"/><path d="M452.322 477.378v-6.759h584.318v6.699" stroke="#BEBEBE" stroke-miterlimit="10"/><path d="M966.367 467.935H460.314v.659h506.053v-.659z" fill="#BEBEBE"/><path d="M460.314 468.205v-4.636h506.053v5.17" stroke="#BEBEBE" stroke-miterlimit="10"/><path d="M937.927 460.727H467.84v.66h470.087v-.66z" fill="#BEBEBE"/><path d="M467.84 461.334v-4.115h470.087v3.647m-360.986-3.726v-4.741H912.07v4.741m-467.734 29.463v-238.1l26.713 54.06M.965 486.715h443.373M1.668 248.503v238.1" stroke="#BEBEBE" stroke-miterlimit="10"/><path d="M452.775 476.555l-8.601 3.012.218.623 8.601-3.012-.218-.623zm-.636-5.824l-.159-.64 8.659-2.275.158.64-8.658 2.275zm8.084-7.063l-.178-.626 8.065-2.48.171.627-8.058 2.479z" fill="#BEBEBE"/><path d="M912.227 456.982V329.593h9.95v127.389m52.182 11.401V309.375h11.751l-.217 159.615m-63.715-139.397l51.712-16.452m12.219-3.766l129.271-39.486M.803 495.064H1085.77M374.995 331.941H269.223v126.927h105.772V331.941z" stroke="#BEBEBE" stroke-miterlimit="10"/><path d="M321.247 341.503h-43.245v66.595h43.245v-66.595zm.469 73.176h-44.03v38.551h44.03v-38.551zm4.86-79.289v120.655" stroke="#BEBEBE" stroke-miterlimit="10"/><path d="M374.521 456.045H272.982V335.231h102.014m-105.773-3.29l3.758 3.29m-3.758 123.637l3.758-2.823m338.937-124.572H473.715" stroke="#BEBEBE" stroke-miterlimit="10"/><path d="M965.66 463.662l-28.039-2.308.059-.66 28.033 2.315-.053.653z" fill="#BEBEBE"/><path d="M966.407 468.034l-.04-152.078" stroke="#BEBEBE" stroke-miterlimit="10"/><path d="M966.373 468.054l-.021.659 70.278 2.234.02-.66-70.277-2.233zm-389.314-13.822H473.871v.732h103.188v-.732z" fill="#BEBEBE"/><path d="M886.768 299.504l62.678-27.578V119.308l-62.678 50.77v129.426z" stroke="#BEBEBE" stroke-miterlimit="10"/><path d="M949.756 124.63l-57.35 46.384-5.638-.936m5.48 127.078V171.014" stroke="#BEBEBE" stroke-miterlimit="10"/><path d="M467.628 457.278l-.198-.646 6.304-2.314.198.646-6.304 2.314z" fill="#BEBEBE"/><path d="M716.438 273.179h38.55M485.385 758.782L359.619 759l36.922-63.463 99.422.019-10.578 63.226zm15.748-96.606l-85.785-.705 19.011-32.22 72.181-1.154-5.407 34.079zm9.172-54.765l-64.407.705 11.969-20.699 55.689.468-3.251 19.526zm5.514-35.036l-49.233.297 6.818-12.654 44.888-.04-2.473 12.397zm3.962-24.445l-39.566.297 5.17-8.718 35.728-.039-1.332 8.46zm2.719-16.875l-32.174.251 2.915-4.966 30.439-.033-1.18 4.748zm1.673-12.489l-26.819.257 4.108-5.177 23.627-.032-.916 4.952z" stroke="#BEBEBE" stroke-miterlimit="10"/><path d="M0 503.742h1012.57l246.79 86.022M10.834 191.384v50.064m527.207-24.155h32.174m-32.174 24.722h31.936m.238-72.722v131.391m17.289-131.391v131.141m-17.289-100.596h17.29m-.614 32.127h32.312m-31.058 50.776h31.217m35.49-86.168h29.931m1.254 10.722h29.147m-61.268 63.866h31.494m-.467-41.926h30.084m-29.617-59.474v131.622" stroke="#BEBEBE" stroke-miterlimit="10"/></svg>