<svg width="516" height="243" fill="none" xmlns="http://www.w3.org/2000/svg"><path d="M322.964 57.325H112.979v2.306h209.985v-2.306zm-14.29 12.562H203.586v53.825h105.088V69.887zm-15.762 2.433h16.021m-55.492 0h14.225m-64.08 0h16.15" stroke="#BEBEBE" stroke-width=".5" stroke-miterlimit="10"/><path d="M253.312 69.887h-33.449v53.857h33.449V69.887zm39.6 0h-25.246v53.857h25.246V69.887zm-125.336 0h-33.193v29.412h33.193V69.887z" stroke="#BEBEBE" stroke-width=".5" stroke-miterlimit="10"/><path d="M167.511 71.808H135.92v27.49h31.591v-27.49zm-54.532-12.175V99.36" stroke="#BEBEBE" stroke-width=".5" stroke-miterlimit="10"/><path d="M190.355 117.365v-13.518l-11.536-24.993H4.43l37.998 20.57m2.022-.386V78.854m44.693 20.184V78.854m89.679 0v20.314" stroke="#BEBEBE" stroke-width=".5" stroke-miterlimit="10"/><path d="M181.702 99.326H.617v2.883h181.085v-2.883zm.021-.141l10.94 23.213v10.379H323V59.633m-130.338 73.244l.93 3.204-.021 50.57M323 65.879h30.275L426.807 1" stroke="#BEBEBE" stroke-width=".5" stroke-miterlimit="10"/><path d="M353.533 65.786h-30.502v1.923h30.502v-1.923zm0 12.492h-30.502V80.2h30.502v-1.922zm-1.539-10.379v10.317m-.065 2.174v47.098h-28.835" stroke="#BEBEBE" stroke-width=".5" stroke-miterlimit="10"/><path d="M450.737 99.812l-98.794 35.755-.048-8.7m-.061 8.794h19.51l85.932-27.586m-85.931 27.587l-.48 49.789m-28.627-47v-2.29l-24.332-.016" stroke="#BEBEBE" stroke-width=".5" stroke-miterlimit="10"/><path d="M322.998 132.776l-5.094 3.365h-67.67v1.923l.195 47.528m91.89-47.333h-92.274" stroke="#BEBEBE" stroke-width=".5" stroke-miterlimit="10"/><path d="M264.846 185.549v-47.275h1.539v47.275m13.263 0v-47.275h1.54v47.275m28.257 0v-47.275h1.537v47.13m29.989.145v-47.275h1.248v47.275m96.698 14.033H181.705v-2.565h251.923" stroke="#BEBEBE" stroke-width=".5" stroke-miterlimit="10"/><path d="M424.177 195.571H184.971v.27h239.206v-.27z" fill="#BEBEBE"/><path d="M184.971 195.808v-2.764H423.92v2.74" stroke="#BEBEBE" stroke-width=".5" stroke-miterlimit="10"/><path d="M395.184 191.948H188.24v.269h206.944v-.269z" fill="#BEBEBE"/><path d="M188.24 192.059v-1.896h206.944v2.114" stroke="#BEBEBE" stroke-width=".5" stroke-miterlimit="10"/><path d="M383.552 189H191.316v.269h192.236V189z" fill="#BEBEBE"/><path d="M191.316 189.247v-1.683h192.236v1.491m-147.62-1.524v-1.938h137.046v1.938m-191.273 12.052v-97.367l10.924 22.107M.395 199.629h181.311M.684 102.216v97.367" stroke="#BEBEBE" stroke-width=".5" stroke-miterlimit="10"/><path d="M185.156 195.471l-3.517 1.231.089.255 3.517-1.232-.089-.254zm-.259-2.379l-.065-.262 3.541-.93.064.261-3.54.931zm3.305-2.889l-.073-.256 3.298-1.014.07.256-3.295 1.014z" fill="#BEBEBE"/><path d="M373.043 187.465v-52.093h4.069v52.093m21.339 4.668v-65.024h4.806l-.089 65.272m-26.057-57.007l21.147-6.728m4.998-1.537l52.865-16.148M.328 203.042H444.01m-290.662-66.707h-43.254v51.905h43.254v-51.905z" stroke="#BEBEBE" stroke-width=".5" stroke-miterlimit="10"/><path d="M131.368 140.246h-17.684v27.234h17.684v-27.234zm.194 29.925h-18.005v15.765h18.005v-15.765zm1.987-32.428v49.341" stroke="#BEBEBE" stroke-width=".5" stroke-miterlimit="10"/><path d="M153.156 187.085h-41.523v-49.406h41.717m-43.256-1.344l1.537 1.345m-1.537 50.558l1.537-1.154m138.606-50.939h-56.516" stroke="#BEBEBE" stroke-width=".5" stroke-miterlimit="10"/><path d="M394.894 190.2l-11.466-.944.024-.27 11.463.947-.021.267z" fill="#BEBEBE"/><path d="M395.2 191.988l-.016-62.19" stroke="#BEBEBE" stroke-width=".5" stroke-miterlimit="10"/><path d="M395.186 191.996l-.008.269 28.74.914.008-.27-28.74-.913zm-159.206-5.654h-42.197v.3h42.197v-.3z" fill="#BEBEBE"/><path d="M362.633 123.068l25.631-11.277V49.38l-25.631 20.76v52.927z" stroke="#BEBEBE" stroke-width=".5" stroke-miterlimit="10"/><path d="M388.391 51.554l-23.453 18.969-2.305-.383m2.24 51.971V70.527" stroke="#BEBEBE" stroke-width=".5" stroke-miterlimit="10"/><path d="M191.229 187.588l-.081-.265 2.578-.946.081.264-2.578.947z" fill="#BEBEBE"/><path d="M292.977 112.306h15.764M0 206.587h414.075L515 241.765M4.43 78.854v20.473m215.593-9.877h13.157m-13.157 10.11h13.06m.097-29.738v53.73m7.072-53.73v53.628m-7.072-41.139h7.07M240 95.448h13.214m-12.7 20.766h12.766m14.513-35.237h12.24m.512 4.383h11.919m-25.054 26.118h12.879m-.191-17.142H292.4m-12.109-24.325v53.825" stroke="#BEBEBE" stroke-width=".5" stroke-miterlimit="10"/></svg>