<svg width="24" height="24" fill="none" xmlns="http://www.w3.org/2000/svg"><path d="M19.713.857H4.285c-.947 0-1.715.767-1.715 1.714v18.857c0 .947.768 1.714 1.715 1.714h15.428c.947 0 1.714-.767 1.714-1.714V2.571c0-.947-.767-1.714-1.714-1.714z" stroke="#424242" stroke-width="1.3" stroke-linecap="round" stroke-linejoin="round"/><path d="M17.071 15.43h-1.469a8 8 0 01-3.578-.845l-.05-.025a8 8 0 00-3.578-.845H6.928m10.214.857a5.143 5.143 0 11-10.286 0 5.143 5.143 0 0110.286 0zM2.57 6h18.857" stroke="#424242" stroke-width="1.3" stroke-linecap="round" stroke-linejoin="round"/></svg>