<svg width="733" height="442" fill="none" xmlns="http://www.w3.org/2000/svg"><path d="M273.589 80.954h298.069v3.273H273.589v-3.273zm20.285 17.826h149.17v76.402h-149.17V98.779zm22.375 3.459h-22.741m78.768 0h-20.191m90.959 0h-22.925" stroke="#BEBEBE" stroke-miterlimit="10"/><path d="M372.459 98.78h47.48v76.448h-47.48V98.779zm-56.21 0h35.836v76.448h-35.836V98.779zm177.912 0h47.116v41.749h-47.116v-41.75z" stroke="#BEBEBE" stroke-miterlimit="10"/><path d="M494.253 101.505h44.843v39.021h-44.843v-39.021zm77.405-17.275v56.391" stroke="#BEBEBE" stroke-miterlimit="10"/><path d="M461.823 166.177v-19.189l16.375-35.476H725.74l-53.938 29.198m-2.868-.547v-28.651m-63.439 28.651v-28.651m-127.296 0v28.835" stroke="#BEBEBE" stroke-miterlimit="10"/><path d="M474.105 140.575h257.046v4.092H474.105v-4.092zm-.025-.203l-15.529 32.95v14.734H273.54V84.23m185.012 103.964l-1.321 4.548.031 71.783" stroke="#BEBEBE" stroke-miterlimit="10"/><path d="M273.541 93.094h-42.975L126.189 1" stroke="#BEBEBE" stroke-miterlimit="10"/><path d="M230.201 92.961h43.296v2.73h-43.296v-2.73zm0 17.735h43.296v2.73h-43.296v-2.73zm2.183-14.736v14.644m.093 3.098v66.853h40.931" stroke="#BEBEBE" stroke-miterlimit="10"/><path d="M92.218 141.26l140.237 50.753.068-12.348m.087 12.483h-27.694L82.939 152.99m121.977 39.163l.682 70.673m40.635-66.718v-3.25l34.538-.023" stroke="#BEBEBE" stroke-miterlimit="10"/><path d="M273.542 188.052l7.231 4.777h96.055v2.73l-.275 67.465m-130.434-67.191H377.1" stroke="#BEBEBE" stroke-miterlimit="10"/><path d="M356.089 262.962v-67.105h-2.186v67.105m-18.826 0v-67.105h-2.186v67.105m-40.11 0v-67.105h-2.182v66.899m-42.571.206v-67.105h-1.772v67.105m-137.258 19.916h365.106v-3.64h-357.6" stroke="#BEBEBE" stroke-miterlimit="10"/><path d="M129.922 277.184h339.547v.382H129.922v-.382z" fill="#BEBEBE"/><path d="M469.469 277.528v-3.924H130.285v3.889" stroke="#BEBEBE" stroke-miterlimit="10"/><path d="M171.078 272.043h293.751v.383H171.078v-.383z" fill="#BEBEBE"/><path d="M464.829 272.202v-2.691H171.078v3.001" stroke="#BEBEBE" stroke-miterlimit="10"/><path d="M187.587 267.864h272.874v.383H187.587v-.383z" fill="#BEBEBE"/><path d="M460.461 268.21v-2.388H187.587v2.117m209.543-2.161v-2.752H202.596v2.752m271.508 17.103V144.67l-15.507 31.38m272.874 106.893H474.103m256.96-138.273v138.211" stroke="#BEBEBE" stroke-miterlimit="10"/><path d="M469.205 277.048l4.992 1.749-.126.361-4.993-1.749.127-.361zm.371-3.381l.092-.371-5.026-1.321-.092.372 5.026 1.32zm-4.692-4.1l.103-.363-4.681-1.439-.1.363 4.678 1.439z" fill="#BEBEBE"/><path d="M202.506 265.686V191.74h-5.776v73.946m-30.292 6.618v-92.3h-6.821l.127 92.653m36.985-80.914l-30.018-9.55m-7.094-2.185l-75.04-22.921m646.988 130.707H101.77m412.584-94.687h61.398v73.678h-61.398v-73.678z" stroke="#BEBEBE" stroke-miterlimit="10"/><path d="M545.554 198.653h25.103v38.657h-25.103v-38.657zm-.272 42.481h25.558v22.377h-25.558v-22.377zm-2.822-46.031v70.038" stroke="#BEBEBE" stroke-miterlimit="10"/><path d="M514.63 265.139h58.941v-70.13h-59.216m61.397-1.902l-2.181 1.91m2.181 71.762l-2.181-1.639m-196.744-72.305h80.224" stroke="#BEBEBE" stroke-miterlimit="10"/><path d="M171.488 269.567l16.276-1.34-.035-.383-16.272 1.344.031.379z" fill="#BEBEBE"/><path d="M171.055 272.103l.023-88.278" stroke="#BEBEBE" stroke-miterlimit="10"/><path d="M171.074 272.116l.012.383-40.796 1.296-.012-.382 40.796-1.297zm225.987-8.027h59.898v.425h-59.898v-.425z" fill="#BEBEBE"/><path d="M217.282 174.275l-36.383-16.008v-88.59l36.383 29.47v75.128z" stroke="#BEBEBE" stroke-miterlimit="10"/><path d="M180.719 72.766l33.29 26.925 3.273-.544m-3.179 73.77V99.695" stroke="#BEBEBE" stroke-miterlimit="10"/><path d="M460.584 265.86l.115-.375-3.659-1.344-.115.375 3.659 1.344z" fill="#BEBEBE"/><path d="M316.157 158.995H293.78m156.495 281.879l73.004.126-21.432-36.839-57.712.012 6.14 36.701zm-9.14-56.076l49.797-.409-11.036-18.703-41.899-.67 3.138 19.782zm-5.324-31.793l37.386.41-6.947-12.016-32.326.272 1.887 11.334zm-3.201-20.336l28.578.172-3.958-7.345-26.055-.023 1.435 7.196zm-2.3-14.191l22.967.173-3.001-5.061-20.739-.023.773 4.911zm-1.577-9.793l18.676.145-1.692-2.882-17.669-.019.685 2.756zm-.973-7.25l15.568.149-2.385-3.005-13.715-.019.532 2.875z" stroke="#BEBEBE" stroke-miterlimit="10"/><path d="M732.03 292.828H144.26L1 342.762m724.74-231.25v29.061m-306.028-14.018h-18.676m18.676 14.351h-18.538m-.136-42.216v76.27M391 98.69v76.125m10.038-58.391h-10.036m.354 18.65H372.6m18.029 29.473h-18.121m-20.601-50.021h-17.374m-.728 6.223h-16.919m35.563 37.071h-18.281m.27-24.34h-17.462m17.189-34.52v76.404" stroke="#BEBEBE" stroke-miterlimit="10"/></svg>