<svg width="298" height="181" fill="none" xmlns="http://www.w3.org/2000/svg"><path d="M186.253 33.483H65.154v1.33h121.099v-1.33zm-8.241 7.243h-60.605v31.04h60.605v-31.04zm-9.09 1.404h9.239m-32.002 0h8.204m-36.956 0h9.314" stroke="#BEBEBE" stroke-width=".5" stroke-miterlimit="10"/><path d="M146.085 40.726h-19.29v31.06h19.29v-31.06zm22.837 0h-14.56v31.06h14.56v-31.06zm-72.282 0H77.498v16.962H96.64V40.726z" stroke="#BEBEBE" stroke-width=".5" stroke-miterlimit="10"/><path d="M96.603 41.834H78.385v15.853h18.218V41.834zm-31.449-7.02v22.91" stroke="#BEBEBE" stroke-width=".5" stroke-miterlimit="10"/><path d="M109.778 68.108v-7.796L103.125 45.9H2.555l21.913 11.863m1.166-.223V45.898M51.408 57.54V45.898m51.717.001v11.715" stroke="#BEBEBE" stroke-width=".5" stroke-miterlimit="10"/><path d="M104.788 57.704H.356v1.663h104.432v-1.663zm.01-.081l6.309 13.387v5.986h75.165V34.814m-75.165 42.238l.537 1.848-.012 29.163m74.641-69.648h17.46L246.139 1" stroke="#BEBEBE" stroke-width=".5" stroke-miterlimit="10"/><path d="M203.881 38.361h-17.59v1.11h17.59v-1.11zm0 7.206h-17.59v1.108h17.59v-1.108zm-.886-5.987v5.95m-.039 1.257v27.16h-16.629" stroke="#BEBEBE" stroke-width=".5" stroke-miterlimit="10"/><path d="M259.941 57.984l-56.975 20.62-.028-5.017m-.036 5.073h11.252l49.556-15.91m-49.556 15.91l-.277 28.713m-16.509-27.108v-1.32l-14.032-.01" stroke="#BEBEBE" stroke-width=".5" stroke-miterlimit="10"/><path d="M186.273 76.995l-2.937 1.94h-39.025v1.11l.112 27.409m52.991-27.298H144.2" stroke="#BEBEBE" stroke-width=".5" stroke-miterlimit="10"/><path d="M152.735 107.428V80.164h.888v27.264m7.649 0V80.164h.888v27.264m16.297 0V80.164h.886v27.18m17.295.084V80.164h.72v27.264m55.766 8.093H104.79v-1.479h145.284" stroke="#BEBEBE" stroke-width=".5" stroke-miterlimit="10"/><path d="M244.623 113.208h-137.95v.155h137.95v-.155z" fill="#BEBEBE"/><path d="M106.673 113.345v-1.594h137.802v1.58" stroke="#BEBEBE" stroke-width=".5" stroke-miterlimit="10"/><path d="M227.902 111.119H108.558v.155h119.344v-.155z" fill="#BEBEBE"/><path d="M108.558 111.182v-1.093h119.344v1.219" stroke="#BEBEBE" stroke-width=".5" stroke-miterlimit="10"/><path d="M221.194 109.418H110.332v.155h110.862v-.155z" fill="#BEBEBE"/><path d="M110.332 109.563v-.97h110.862v.86m-85.132-.881v-1.118h79.034v1.118m-110.306 6.949V59.37l6.3 12.749M.228 115.547H104.79M.394 59.37v56.151" stroke="#BEBEBE" stroke-width=".5" stroke-miterlimit="10"/><path d="M106.779 113.152l-2.028.711.051.146 2.029-.71-.052-.147zm-.15-1.375l-.037-.151 2.042-.537.037.151-2.042.537zm1.906-1.664l-.042-.148 1.902-.585.041.148-1.901.585z" fill="#BEBEBE"/><path d="M215.134 108.537V78.494h2.347v30.043m12.305 2.687v-37.5h2.771l-.051 37.643m-15.027-32.874l12.196-3.88m2.883-.886l30.487-9.313M.19 117.516h255.87M88.436 79.048H63.49v29.934h24.945V79.048z" stroke="#BEBEBE" stroke-width=".5" stroke-miterlimit="10"/><path d="M75.76 81.302H65.561v15.705h10.2V81.302zm.111 17.257H65.487v9.091h10.384v-9.091zm1.147-18.698v28.455" stroke="#BEBEBE" stroke-width=".5" stroke-miterlimit="10"/><path d="M88.324 108.316H64.378V79.824h24.058m-24.945-.776l.887.776m-.887 29.156l.887-.666m79.933-29.378h-32.593" stroke="#BEBEBE" stroke-width=".5" stroke-miterlimit="10"/><path d="M227.735 110.111l-6.613-.544.014-.156 6.611.546-.012.154z" fill="#BEBEBE"/><path d="M227.912 111.143l-.01-35.865" stroke="#BEBEBE" stroke-width=".5" stroke-miterlimit="10"/><path d="M227.902 111.147l-.005.156 16.575.527.005-.156-16.575-.527zm-91.812-3.259h-24.335v.172h24.335v-.172z" fill="#BEBEBE"/><path d="M209.129 71.397l14.782-6.504V28.901l-14.782 11.973v30.523z" stroke="#BEBEBE" stroke-width=".5" stroke-miterlimit="10"/><path d="M223.984 30.155l-13.525 10.94-1.33-.221m1.293 29.968V41.094" stroke="#BEBEBE" stroke-width=".5" stroke-miterlimit="10"/><path d="M110.283 108.605l-.047-.152 1.487-.546.047.153-1.487.545z" fill="#BEBEBE"/><path d="M168.96 65.19h9.091m-63.582 114.523l-29.66.051 8.708-14.967 23.447.005-2.495 14.911zM0 119.564h238.797L297 139.851M2.555 45.899v11.807m124.334-5.696h7.587m-7.587 5.831h7.531m.057-17.151v30.987m4.077-30.987v30.927m-4.077-23.723h4.077m-.145 7.576h7.62m-7.324 11.975h7.362m8.37-20.324h7.058m.296 2.529h6.874m-14.449 15.063h7.427m-.11-9.886h7.095m-6.985-14.028v31.04" stroke="#BEBEBE" stroke-width=".5" stroke-miterlimit="10"/></svg>