<svg width="27" height="24" fill="none" xmlns="http://www.w3.org/2000/svg"><path d="M9.274 7.462c1.608 0 2.911-1.3 2.911-2.902a2.906 2.906 0 00-2.91-2.902A2.906 2.906 0 006.362 4.56a2.906 2.906 0 002.911 2.902zm10.201 5.167c3.498 0 6.334-2.827 6.334-6.315C25.809 2.827 22.973 0 19.475 0c-3.499 0-6.334 2.827-6.334 6.314 0 3.488 2.835 6.315 6.334 6.315zM7.792 24c4.303 0 7.792-3.478 7.792-7.767 0-4.29-3.489-7.768-7.792-7.768S0 11.943 0 16.233C0 20.523 3.489 24 7.792 24zm13.504-.977c2.599 0 4.705-2.1 4.705-4.691a4.698 4.698 0 00-4.705-4.691 4.698 4.698 0 00-4.706 4.69 4.7 4.7 0 004.706 4.692z" fill="#424242"/></svg>