<?xml version="1.0" encoding="utf-8"?><svg viewBox="0 0 20 18" xmlns="http://www.w3.org/2000/svg" xmlns:xlink="http://www.w3.org/1999/xlink"><style>:root>svg{display:none}:root>svg:target{display:block}</style><svg fill="none" viewBox="0 0 6 10" id="icon-arrow-link" xmlns="http://www.w3.org/2000/svg"><path d="M.536 8.536L4.07 5 .536 1.464" stroke="#F65219" stroke-width="1.4"/></svg><svg fill="none" viewBox="0 0 10 8" id="icon-arrow-next" xmlns="http://www.w3.org/2000/svg"><path d="M5.452 8l-.657-.648 2.702-2.701H.5v-.938h6.997L4.795 1.02l.657-.656L9.27 4.182 5.452 8z" fill="currentColor"/></svg><svg fill="none" viewBox="0 0 11 9" id="icon-arrow-prev" xmlns="http://www.w3.org/2000/svg"><path d="M4.473 9l.766-.756-3.152-3.152h8.163V4H2.087L5.239.857 4.473.09.018 4.545 4.473 9z" fill="currentColor"/></svg><svg fill="none" viewBox="0 0 14 14" id="icon-close" xmlns="http://www.w3.org/2000/svg"><path d="M1.056 13l5.947-6 5.947-6M1 1.052l6 5.946 6 5.947" stroke="currentColor" stroke-width="1.4"/></svg><svg fill="none" viewBox="0 0 16 11" id="icon-filter" xmlns="http://www.w3.org/2000/svg"><path d="M0 8.5h16m-16-6h16" stroke="currentColor" stroke-linejoin="round"/><circle cx="4" cy="2.5" r="2" fill="#DCDCDC" stroke="currentColor" stroke-linejoin="round"/><circle cx="12" cy="8.5" r="2" fill="#DCDCDC" stroke="currentColor" stroke-linejoin="round"/></svg><svg fill="none" viewBox="0 0 20 18" id="icon-like-light" xmlns="http://www.w3.org/2000/svg"><path d="M10.006 17L2.367 9.63c-4.151-4.422 1.951-12.912 7.639-6.043 5.687-6.869 11.762 1.65 7.638 6.043L10.006 17z" stroke="currentColor" stroke-linecap="round" stroke-linejoin="round"/></svg><svg fill="none" viewBox="0 0 16 16" id="icon-phone-light" xmlns="http://www.w3.org/2000/svg"><path d="M5.997 14.836a3.638 3.638 0 01-4.562-.502l-.513-.502a1.232 1.232 0 010-1.722L3.1 9.955a1.22 1.22 0 011.71 0 1.232 1.232 0 001.723 0l3.421-3.422a1.209 1.209 0 000-1.722 1.22 1.22 0 010-1.71L12.121.934a1.232 1.232 0 011.722 0l.502.513a3.638 3.638 0 01.502 4.562 33.004 33.004 0 01-8.85 8.827z" stroke="currentColor" stroke-linecap="square" stroke-linejoin="round"/></svg><svg fill="none" viewBox="0 0 14 14" id="icon-search" xmlns="http://www.w3.org/2000/svg"><path d="M5.654 10.308a4.654 4.654 0 100-9.308 4.654 4.654 0 000 9.308z" stroke="currentColor" stroke-width="1.5" stroke-linecap="round" stroke-linejoin="round"/><path d="M12 12L9.04 9.038" stroke="currentColor" stroke-width="1.5" stroke-linecap="square" stroke-linejoin="round"/></svg><svg fill="none" viewBox="0 0 18 18" id="icon-search-light" xmlns="http://www.w3.org/2000/svg"><path d="M7.77 14.538a6.77 6.77 0 100-13.54 6.77 6.77 0 000 13.54z" stroke="currentColor" stroke-linecap="round" stroke-linejoin="round"/><path d="M17.001 17.001l-4.308-4.308" stroke="#424242" stroke-linecap="square" stroke-linejoin="round"/></svg></svg>