<?xml version="1.0" encoding="utf-8"?><svg viewBox="0 0 24 24" xmlns="http://www.w3.org/2000/svg" xmlns:xlink="http://www.w3.org/1999/xlink"><style>:root>svg{display:none}:root>svg:target{display:block}</style><svg fill="none" viewBox="0 0 6 10" id="icon-arrow-link" xmlns="http://www.w3.org/2000/svg"><path d="M.536 8.536L4.07 5 .536 1.464" stroke="currentColor" stroke-width="1.4"/></svg><svg fill="none" viewBox="0 0 10 8" id="icon-arrow-next" xmlns="http://www.w3.org/2000/svg"><path d="M5.452 8l-.657-.648 2.702-2.701H.5v-.938h6.997L4.795 1.02l.657-.656L9.27 4.182 5.452 8z" fill="currentColor"/></svg><svg fill="none" viewBox="0 0 11 9" id="icon-arrow-prev" xmlns="http://www.w3.org/2000/svg"><path d="M4.473 9l.766-.756-3.152-3.152h8.163V4H2.087L5.239.857 4.473.09.018 4.545 4.473 9z" fill="currentColor"/></svg><svg fill="none" viewBox="0 0 9 6" id="icon-caret-select" xmlns="http://www.w3.org/2000/svg"><path d="M1 .5l3.535 3.535L8.071.5" stroke="#424242" stroke-width="1.4"/></svg><svg fill="none" viewBox="0 0 20 20" id="icon-check-accent" xmlns="http://www.w3.org/2000/svg"><path d="M16 6l-8.25 8L4 9.91" stroke="#F65219" stroke-width="2" stroke-linecap="round" stroke-linejoin="round"/></svg><svg fill="none" viewBox="0 0 14 14" id="icon-close" xmlns="http://www.w3.org/2000/svg"><path d="M1.056 13l5.947-6 5.947-6M1 1.052l6 5.946 6 5.947" stroke="currentColor" stroke-width="1.4"/></svg><svg fill="none" viewBox="0 0 16 11" id="icon-filter" xmlns="http://www.w3.org/2000/svg"><path d="M0 8.5h16m-16-6h16" stroke="currentColor" stroke-linejoin="round"/><circle cx="4" cy="2.5" r="2" fill="#DCDCDC" stroke="currentColor" stroke-linejoin="round"/><circle cx="12" cy="8.5" r="2" fill="#DCDCDC" stroke="currentColor" stroke-linejoin="round"/></svg><svg fill="none" viewBox="0 0 24 24" id="icon-industry" xmlns="http://www.w3.org/2000/svg"><path d="M1.114 20.047v-6.205l5.43-2.326 5.428 2.326v6.205l-5.429 2.326-5.429-2.326z" stroke="currentColor" stroke-width="1.3" stroke-linecap="round" stroke-linejoin="round"/><path d="M1.114 13.828l5.43 2.327 5.428-2.327M6.542 5.352l5.429 2.326L17.4 5.352" stroke="currentColor" stroke-width="1.3" stroke-linecap="round" stroke-linejoin="round"/><path d="M11.969 13.828l5.429 2.327 5.428-2.327" stroke="currentColor" stroke-width="1.3" stroke-linecap="round" stroke-linejoin="round"/><path d="M6.547 11.51V5.306l5.429-2.327 5.429 2.327v6.204l-5.43 2.327-5.428-2.327zM11.969 20.047v-6.205l5.429-2.326 5.428 2.326v6.205l-5.428 2.326-5.43-2.326zM6.542 16.159v6.214M17.403 16.159v6.214M11.969 7.677v6.214" stroke="currentColor" stroke-width="1.3" stroke-linecap="round" stroke-linejoin="round"/></svg><svg fill="none" viewBox="0 0 24 24" id="icon-insurance" xmlns="http://www.w3.org/2000/svg"><path d="M14.254 1.768a.857.857 0 00-.857.857v2.41h-2.411a.857.857 0 00-.857.858v2.786c0 .473.384.857.857.857h2.41v2.41c0 .474.384.858.858.858h2.786a.857.857 0 00.857-.857V9.536h2.41a.857.857 0 00.858-.857V5.893a.857.857 0 00-.857-.857h-2.411V2.625a.857.857 0 00-.857-.857h-2.786zM.999 18.482l4.19 3.491a3.428 3.428 0 002.194.795h11.045c.789 0 1.428-.64 1.428-1.429A2.857 2.857 0 0017 18.482H9.321" stroke="currentColor" stroke-width="1.2" stroke-linecap="round" stroke-linejoin="round"/><path d="M6.142 16.768l1.286 1.285a1.818 1.818 0 002.571-2.571l-1.996-1.996a3.429 3.429 0 00-2.424-1.004H.999" stroke="currentColor" stroke-width="1.2" stroke-linecap="round" stroke-linejoin="round"/></svg><svg fill="none" viewBox="0 0 20 18" id="icon-like-light" xmlns="http://www.w3.org/2000/svg"><path d="M10.006 17L2.367 9.63c-4.151-4.422 1.951-12.912 7.639-6.043 5.687-6.869 11.762 1.65 7.638 6.043L10.006 17z" stroke="currentColor" stroke-linecap="round" stroke-linejoin="round"/></svg><svg fill="none" viewBox="0 0 16 16" id="icon-phone-light" xmlns="http://www.w3.org/2000/svg"><path d="M5.997 14.836a3.638 3.638 0 01-4.562-.502l-.513-.502a1.232 1.232 0 010-1.722L3.1 9.955a1.22 1.22 0 011.71 0 1.232 1.232 0 001.723 0l3.421-3.422a1.209 1.209 0 000-1.722 1.22 1.22 0 010-1.71L12.121.934a1.232 1.232 0 011.722 0l.502.513a3.638 3.638 0 01.502 4.562 33.004 33.004 0 01-8.85 8.827z" stroke="currentColor" stroke-linecap="square" stroke-linejoin="round"/></svg><svg fill="none" viewBox="0 0 24 24" id="icon-school" xmlns="http://www.w3.org/2000/svg"><path d="M12.002 11.221c-1.28-.948-3.203-2.606-8.713-2.606v11.87c5.51 0 7.432 1.658 8.713 2.606v-11.87zM12.002 11.221c1.282-.948 3.204-2.606 8.714-2.606v11.87c-5.51 0-7.432 1.658-8.714 2.606v-11.87zM18.45.893H7.004c-.32 0-.633.09-.905.258L3.086 3.024l3.013 1.872c.272.169.585.258.905.258H18.45a2.13 2.13 0 000-4.26zM15.406.984v4.17" stroke="currentColor" stroke-width="1.3" stroke-linecap="round" stroke-linejoin="round"/></svg><svg fill="none" viewBox="0 0 14 14" id="icon-search" xmlns="http://www.w3.org/2000/svg"><path d="M5.654 10.308a4.654 4.654 0 100-9.308 4.654 4.654 0 000 9.308z" stroke="currentColor" stroke-width="1.5" stroke-linecap="round" stroke-linejoin="round"/><path d="M12 12L9.04 9.038" stroke="currentColor" stroke-width="1.5" stroke-linecap="square" stroke-linejoin="round"/></svg><svg fill="none" viewBox="0 0 18 18" id="icon-search-light" xmlns="http://www.w3.org/2000/svg"><path d="M7.77 14.538a6.77 6.77 0 100-13.54 6.77 6.77 0 000 13.54z" stroke="currentColor" stroke-linecap="round" stroke-linejoin="round"/><path d="M17.001 17.001l-4.308-4.308" stroke="#424242" stroke-linecap="square" stroke-linejoin="round"/></svg><svg fill="none" viewBox="0 0 24 24" id="icon-shop" xmlns="http://www.w3.org/2000/svg"><path d="M2.571 14.571v7.715a.857.857 0 00.857.857h17.143a.857.857 0 00.857-.857V14.57M13.714 14.571v8.572M2.571 17.143h11.143M.857 6.857l2.572-6h17.143l2.571 6H.857zM8.195 6.857v1.714A3.429 3.429 0 014.766 12h-.48A3.428 3.428 0 01.857 8.571V6.857" stroke="currentColor" stroke-width="1.2" stroke-linecap="round" stroke-linejoin="round"/><path d="M15.857 6.857v1.714A3.429 3.429 0 0112.428 12h-.857a3.428 3.428 0 01-3.428-3.429V6.857M23.143 6.857v1.714A3.429 3.429 0 0119.715 12h-.429a3.429 3.429 0 01-3.429-3.429V6.857" stroke="currentColor" stroke-width="1.2" stroke-linecap="round" stroke-linejoin="round"/></svg></svg>